<svg id="svg" version="1.1" xmlns="http://www.w3.org/2000/svg" xmlns:xlink="http://www.w3.org/1999/xlink" width="400" height="400" viewBox="0, 0, 400,400"><g id="svgg"><path id="path0" d="M204.800 39.585 C 204.470 39.806,204.380 39.998,204.600 40.010 C 204.820 40.022,204.505 40.301,203.900 40.629 C 203.295 40.957,202.800 41.400,202.800 41.613 C 202.800 41.826,202.635 41.955,202.432 41.900 C 202.230 41.845,201.442 42.430,200.682 43.200 C 199.921 43.970,198.692 45.182,197.949 45.893 C 197.207 46.604,196.246 47.626,195.814 48.163 C 195.381 48.701,194.886 49.053,194.714 48.947 C 194.541 48.840,194.400 49.014,194.400 49.334 C 194.400 49.653,194.119 50.022,193.775 50.154 C 193.431 50.286,193.264 50.580,193.404 50.807 C 193.545 51.034,193.511 51.170,193.330 51.110 C 193.148 51.049,192.930 51.180,192.845 51.400 C 192.760 51.620,192.040 52.462,191.245 53.272 C 189.302 55.250,188.800 55.889,188.800 56.383 C 188.800 56.612,188.575 56.801,188.300 56.803 C 188.025 56.804,187.490 57.299,187.111 57.903 C 185.840 59.928,185.403 60.563,184.896 61.115 C 184.619 61.417,184.495 61.830,184.620 62.032 C 184.745 62.235,184.556 62.400,184.200 62.400 C 183.844 62.400,183.664 62.580,183.800 62.800 C 183.936 63.020,183.846 63.200,183.600 63.200 C 183.354 63.200,183.248 63.353,183.364 63.541 C 183.480 63.729,183.297 64.224,182.958 64.641 C 182.618 65.058,182.472 65.147,182.632 64.838 C 182.824 64.469,182.765 64.374,182.462 64.562 C 182.208 64.719,182.000 65.008,182.000 65.204 C 182.000 65.400,181.460 66.360,180.800 67.338 C 180.140 68.316,179.600 69.293,179.600 69.509 C 179.600 69.725,179.322 70.133,178.982 70.415 C 178.642 70.697,178.460 71.179,178.577 71.485 C 178.696 71.794,178.613 71.932,178.391 71.794 C 178.171 71.658,177.881 72.096,177.747 72.767 C 177.612 73.438,177.350 73.893,177.163 73.777 C 176.976 73.662,176.709 74.025,176.568 74.584 C 176.428 75.143,176.167 75.600,175.988 75.600 C 175.810 75.600,175.545 76.140,175.400 76.800 C 175.255 77.460,174.959 78.000,174.741 78.000 C 174.524 78.000,174.452 78.335,174.582 78.744 C 174.718 79.173,174.561 79.701,174.209 79.993 C 173.874 80.271,173.600 80.746,173.600 81.049 C 173.600 81.352,173.401 81.600,173.157 81.600 C 172.914 81.600,172.818 81.870,172.945 82.200 C 173.071 82.530,172.990 82.800,172.764 82.800 C 172.538 82.800,172.452 82.961,172.574 83.158 C 172.696 83.355,172.526 83.619,172.198 83.746 C 171.869 83.872,171.600 84.300,171.600 84.698 C 171.600 85.096,171.320 85.822,170.977 86.312 C 170.634 86.801,170.465 87.381,170.600 87.601 C 170.736 87.820,170.672 88.000,170.459 88.000 C 170.245 88.000,169.949 88.720,169.800 89.600 C 169.651 90.480,169.374 91.200,169.183 91.200 C 168.992 91.200,168.718 91.830,168.574 92.600 C 168.429 93.370,168.132 94.000,167.913 94.000 C 167.694 94.000,167.616 94.264,167.740 94.587 C 167.864 94.910,167.793 95.281,167.583 95.411 C 167.372 95.541,167.200 96.087,167.200 96.624 C 167.200 97.161,166.999 97.600,166.753 97.600 C 166.504 97.600,166.399 97.953,166.516 98.400 C 166.636 98.858,166.527 99.203,166.263 99.206 C 166.004 99.210,166.064 99.383,166.400 99.600 C 166.792 99.854,166.829 99.990,166.505 99.994 C 166.232 99.997,165.894 100.720,165.754 101.600 C 165.613 102.480,165.358 103.200,165.186 103.200 C 165.015 103.200,164.964 103.540,165.072 103.955 C 165.181 104.370,165.074 104.831,164.835 104.978 C 164.596 105.126,164.400 105.657,164.400 106.157 C 164.400 106.657,164.265 107.202,164.100 107.367 C 163.935 107.532,163.778 108.012,163.750 108.433 C 163.722 108.855,163.655 109.290,163.600 109.400 C 163.397 109.806,163.299 110.430,163.250 111.624 C 163.217 112.439,163.046 112.752,162.738 112.561 C 162.408 112.357,162.347 112.633,162.524 113.522 C 162.662 114.208,162.618 114.865,162.428 114.983 C 162.237 115.101,161.953 116.503,161.795 118.098 C 161.638 119.694,161.400 121.180,161.266 121.400 C 160.907 121.989,160.814 122.640,160.536 126.488 C 160.397 128.406,160.129 129.880,159.942 129.764 C 159.754 129.648,159.600 129.844,159.600 130.200 C 159.600 130.569,159.789 130.730,160.040 130.575 C 160.356 130.380,160.362 130.524,160.060 131.088 C 159.829 131.519,159.636 132.216,159.632 132.636 C 159.574 137.741,159.040 146.284,158.760 146.580 C 158.262 147.106,158.298 153.200,158.800 153.200 C 159.020 153.200,159.179 153.335,159.153 153.500 C 159.127 153.665,159.138 153.890,159.178 154.000 C 159.218 154.110,159.311 154.819,159.385 155.576 C 159.459 156.332,159.804 157.160,160.153 157.415 C 160.502 157.670,160.670 157.996,160.527 158.140 C 160.384 158.283,160.567 158.400,160.933 158.400 C 161.300 158.400,161.600 158.591,161.600 158.824 C 161.600 159.057,161.375 159.122,161.100 158.969 C 160.825 158.815,160.968 159.078,161.418 159.552 C 161.868 160.026,163.038 160.571,164.018 160.763 C 164.998 160.955,165.530 161.145,165.200 161.184 C 164.780 161.235,164.840 161.352,165.400 161.574 C 165.887 161.767,166.315 161.716,166.494 161.445 C 166.675 161.170,166.790 161.277,166.794 161.724 C 166.797 162.122,166.961 162.348,167.158 162.226 C 167.355 162.104,167.624 162.286,167.756 162.630 C 167.921 163.060,168.262 163.171,168.848 162.985 C 169.422 162.803,169.611 162.859,169.426 163.157 C 169.262 163.423,169.463 163.600,169.927 163.600 C 170.353 163.600,170.926 163.870,171.200 164.200 C 171.474 164.530,171.946 164.800,172.249 164.800 C 172.552 164.800,172.800 164.958,172.800 165.151 C 172.800 165.345,173.340 165.727,174.000 166.000 C 174.660 166.273,175.200 166.655,175.200 166.849 C 175.200 167.042,175.430 167.200,175.711 167.200 C 175.992 167.200,176.530 167.560,176.907 168.000 C 177.284 168.440,177.909 168.803,178.296 168.806 C 178.897 168.811,178.912 168.869,178.400 169.200 C 177.879 169.537,177.887 169.589,178.457 169.594 C 178.819 169.597,179.222 169.881,179.354 170.225 C 179.489 170.575,179.799 170.724,180.059 170.564 C 180.315 170.406,180.422 170.441,180.297 170.643 C 180.002 171.120,180.804 172.176,181.725 172.522 C 182.124 172.672,182.360 172.941,182.249 173.121 C 182.138 173.301,182.576 173.885,183.223 174.419 C 183.871 174.954,184.400 175.618,184.400 175.896 C 184.400 176.173,184.670 176.400,185.000 176.400 C 185.330 176.400,185.600 176.634,185.600 176.920 C 185.600 177.656,186.541 179.593,186.900 179.597 C 187.065 179.599,187.200 179.870,187.200 180.200 C 187.200 180.530,187.391 180.800,187.624 180.800 C 187.857 180.800,187.936 180.980,187.800 181.200 C 187.664 181.420,187.702 181.600,187.885 181.600 C 188.434 181.600,190.596 186.272,190.445 187.130 C 190.393 187.421,190.521 187.871,190.729 188.130 C 191.155 188.659,191.804 191.207,191.655 191.763 C 191.602 191.963,191.733 192.235,191.948 192.368 C 192.290 192.579,192.490 193.694,192.963 198.038 C 193.025 198.609,193.222 199.312,193.400 199.600 C 193.604 199.931,193.567 200.027,193.298 199.861 C 192.747 199.520,192.751 203.203,193.302 203.900 C 193.569 204.237,193.554 204.400,193.258 204.400 C 193.014 204.400,192.850 204.978,192.890 205.700 C 193.006 207.807,192.377 211.633,191.957 211.373 C 191.734 211.235,191.651 211.565,191.759 212.161 C 191.861 212.726,191.777 213.291,191.572 213.417 C 191.368 213.544,191.200 214.097,191.200 214.647 C 191.200 215.296,191.039 215.548,190.742 215.364 C 190.426 215.169,190.346 215.407,190.484 216.128 C 190.610 216.785,190.531 217.081,190.274 216.922 C 190.025 216.768,189.964 216.930,190.119 217.334 C 190.260 217.700,190.201 218.000,189.987 218.000 C 189.774 218.000,189.600 218.461,189.600 219.024 C 189.600 219.587,189.440 219.948,189.244 219.827 C 189.048 219.706,188.769 220.240,188.624 221.015 C 188.478 221.789,188.227 222.340,188.065 222.240 C 187.903 222.140,187.251 222.990,186.617 224.129 C 185.982 225.268,185.357 226.290,185.228 226.400 C 185.098 226.510,184.638 227.275,184.205 228.100 C 183.772 228.925,183.256 229.600,183.057 229.600 C 182.586 229.600,177.600 234.586,177.600 235.057 C 177.600 235.256,176.925 235.774,176.100 236.209 C 174.317 237.149,173.885 237.461,172.404 238.873 C 171.786 239.463,171.172 239.838,171.040 239.706 C 170.908 239.575,170.800 239.677,170.800 239.933 C 170.800 240.190,170.449 240.400,170.020 240.400 C 169.591 240.400,169.096 240.639,168.920 240.930 C 168.589 241.479,167.226 242.175,166.700 242.064 C 166.535 242.029,166.400 242.191,166.400 242.424 C 166.400 242.657,166.212 242.731,165.982 242.589 C 165.753 242.447,165.283 242.565,164.938 242.851 C 164.594 243.137,163.840 243.435,163.263 243.512 C 162.687 243.589,162.113 243.817,161.989 244.018 C 161.797 244.328,159.860 244.768,158.118 244.898 C 157.852 244.917,157.728 245.083,157.841 245.267 C 157.955 245.450,157.632 245.603,157.124 245.607 C 156.616 245.611,154.995 245.723,153.523 245.856 C 150.114 246.165,141.524 245.647,141.830 245.151 C 141.956 244.947,141.911 244.821,141.730 244.871 C 141.106 245.043,138.199 244.328,137.639 243.864 C 137.330 243.609,136.970 243.437,136.839 243.483 C 136.433 243.623,134.626 243.110,134.118 242.710 C 133.852 242.502,133.447 242.447,133.218 242.589 C 132.988 242.731,132.800 242.676,132.800 242.467 C 132.800 242.258,132.340 241.971,131.779 241.830 C 131.217 241.689,130.020 241.040,129.119 240.387 C 128.217 239.734,127.249 239.200,126.967 239.200 C 126.685 239.200,126.340 238.840,126.200 238.400 C 126.060 237.960,125.598 237.600,125.173 237.600 C 124.748 237.600,124.400 237.330,124.400 237.000 C 124.400 236.670,124.173 236.400,123.896 236.400 C 123.618 236.400,122.954 235.871,122.419 235.223 C 121.885 234.576,121.301 234.138,121.121 234.249 C 120.941 234.360,120.672 234.124,120.522 233.725 C 120.176 232.804,119.120 232.002,118.643 232.297 C 118.441 232.422,118.406 232.315,118.564 232.059 C 118.724 231.799,118.575 231.489,118.225 231.354 C 117.881 231.222,117.597 230.819,117.594 230.457 C 117.589 229.887,117.537 229.879,117.200 230.400 C 116.869 230.912,116.811 230.897,116.806 230.296 C 116.803 229.909,116.440 229.284,116.000 228.907 C 115.560 228.530,115.200 227.992,115.200 227.711 C 115.200 227.430,115.032 227.200,114.827 227.200 C 114.622 227.200,114.340 226.841,114.201 226.402 C 114.062 225.964,113.734 225.371,113.474 225.085 C 112.860 224.413,112.119 223.253,111.502 222.000 C 111.231 221.450,110.807 220.787,110.560 220.527 C 110.313 220.267,109.987 219.280,109.836 218.335 C 109.631 217.052,109.466 216.766,109.187 217.208 C 108.909 217.647,108.811 217.464,108.806 216.500 C 108.803 215.785,108.630 215.200,108.423 215.200 C 108.216 215.200,108.116 214.835,108.202 214.389 C 108.288 213.943,108.188 213.684,107.979 213.813 C 107.768 213.943,107.600 213.427,107.600 212.647 C 107.600 211.877,107.431 211.143,107.225 211.015 C 107.018 210.888,106.919 210.422,107.004 209.981 C 107.089 209.540,106.988 209.284,106.779 209.413 C 106.550 209.555,106.377 207.783,106.343 204.924 C 106.260 198.099,106.397 195.449,106.845 195.172 C 107.061 195.038,107.153 194.453,107.047 193.871 C 106.942 193.289,107.023 192.709,107.228 192.583 C 107.432 192.456,107.600 191.823,107.600 191.176 C 107.600 190.529,107.769 190.000,107.975 190.000 C 108.182 190.000,108.472 189.190,108.621 188.200 C 108.769 187.210,109.070 186.400,109.288 186.400 C 109.507 186.400,109.582 186.130,109.455 185.800 C 109.329 185.470,109.407 185.200,109.630 185.200 C 109.853 185.200,109.999 184.975,109.954 184.700 C 109.840 183.989,110.381 182.838,111.676 181.040 C 112.294 180.182,112.800 179.256,112.800 178.983 C 112.800 178.709,113.070 178.382,113.400 178.255 C 113.730 178.129,114.000 177.659,114.000 177.213 C 114.000 176.757,114.264 176.400,114.600 176.400 C 114.930 176.400,115.169 176.265,115.130 176.100 C 114.997 175.527,116.131 173.600,116.602 173.600 C 117.140 173.600,118.653 172.052,118.500 171.658 C 118.445 171.516,118.625 171.400,118.900 171.400 C 119.175 171.400,119.400 171.175,119.400 170.900 C 119.400 170.625,119.516 170.445,119.658 170.500 C 120.052 170.653,121.600 169.140,121.600 168.602 C 121.600 168.131,123.527 166.997,124.100 167.130 C 124.265 167.169,124.400 166.930,124.400 166.600 C 124.400 166.264,124.757 166.000,125.213 166.000 C 125.659 166.000,126.129 165.730,126.255 165.400 C 126.382 165.070,126.709 164.800,126.983 164.800 C 127.256 164.800,128.217 164.266,129.119 163.613 C 130.020 162.960,131.262 162.306,131.879 162.159 C 133.408 161.794,135.201 160.726,134.955 160.327 C 134.844 160.147,134.954 160.000,135.200 160.000 C 135.446 160.000,135.536 159.820,135.400 159.600 C 135.264 159.380,135.421 159.200,135.749 159.200 C 136.570 159.200,136.749 158.380,136.858 154.123 C 136.916 151.869,137.102 150.540,137.341 150.687 C 137.589 150.841,137.633 149.241,137.462 146.243 C 137.290 143.240,137.344 141.279,137.611 140.779 C 137.906 140.228,137.900 140.000,137.590 140.000 C 137.338 140.000,137.287 139.789,137.470 139.500 C 137.862 138.883,137.791 139.441,138.170 134.000 C 138.346 131.470,138.600 129.220,138.733 129.000 C 138.867 128.780,139.004 128.240,139.037 127.800 C 139.279 124.607,139.737 121.335,139.990 121.000 C 140.155 120.780,140.302 120.330,140.315 120.000 C 140.425 117.246,140.978 114.063,141.312 114.269 C 141.567 114.427,141.612 113.990,141.437 113.058 C 141.282 112.231,141.325 111.600,141.535 111.600 C 141.740 111.600,142.032 110.430,142.185 109.000 C 142.338 107.570,142.591 106.400,142.746 106.400 C 142.901 106.400,143.063 106.085,143.105 105.700 C 143.329 103.655,143.722 102.000,143.983 102.000 C 144.145 102.000,144.293 101.505,144.310 100.900 C 144.328 100.295,144.571 99.260,144.851 98.600 C 145.131 97.940,145.400 96.950,145.449 96.400 C 145.564 95.105,146.518 92.400,146.860 92.400 C 147.006 92.400,147.250 91.488,147.404 90.374 C 147.557 89.260,147.782 88.449,147.904 88.571 C 148.130 88.797,149.367 85.652,149.980 83.289 C 150.168 82.567,150.534 81.720,150.795 81.406 C 151.056 81.092,151.153 80.647,151.011 80.418 C 150.869 80.188,150.943 80.000,151.176 80.000 C 151.409 80.000,151.600 79.717,151.600 79.371 C 151.600 79.026,151.872 78.471,152.204 78.139 C 152.536 77.807,152.709 77.377,152.589 77.182 C 152.469 76.988,152.737 76.463,153.185 76.015 C 153.633 75.567,154.023 74.930,154.050 74.600 C 154.157 73.312,154.218 73.160,154.751 72.830 C 155.054 72.643,155.179 72.289,155.028 72.045 C 154.876 71.800,154.943 71.600,155.176 71.600 C 155.409 71.600,155.600 71.234,155.600 70.787 C 155.600 70.341,155.869 69.872,156.198 69.746 C 156.526 69.619,156.688 69.343,156.558 69.131 C 156.427 68.920,156.598 68.534,156.938 68.273 C 157.278 68.013,157.611 67.537,157.678 67.216 C 157.745 66.894,158.070 66.321,158.400 65.943 C 158.730 65.564,159.354 64.567,159.787 63.727 C 160.221 62.887,160.986 61.691,161.487 61.069 C 161.989 60.447,162.400 59.592,162.400 59.169 C 162.400 58.746,162.593 58.400,162.829 58.400 C 163.421 58.400,164.418 57.351,164.114 57.048 C 163.978 56.911,164.107 56.800,164.400 56.800 C 164.693 56.800,164.828 56.695,164.700 56.566 C 164.571 56.438,165.126 55.638,165.933 54.788 C 167.792 52.831,168.800 51.532,168.800 51.095 C 168.800 50.907,168.964 50.854,169.165 50.979 C 169.366 51.103,169.765 50.676,170.050 50.031 C 170.336 49.386,170.687 48.930,170.830 49.019 C 171.158 49.221,174.200 45.963,174.200 45.409 C 174.200 45.184,174.415 45.000,174.678 45.000 C 175.498 45.000,177.565 43.038,177.583 42.243 C 177.603 41.357,170.783 41.596,169.639 42.521 C 169.174 42.897,169.111 42.893,169.347 42.500 C 169.512 42.225,169.457 42.000,169.224 42.000 C 168.991 42.000,168.800 42.182,168.800 42.405 C 168.800 42.651,168.192 42.712,167.250 42.562 C 166.290 42.408,165.596 42.482,165.427 42.757 C 165.276 43.001,164.443 43.200,163.576 43.200 C 162.709 43.200,162.000 43.340,162.000 43.511 C 162.000 43.683,161.275 43.782,160.390 43.733 C 159.457 43.681,158.878 43.802,159.013 44.021 C 159.142 44.230,158.652 44.421,157.924 44.446 C 156.610 44.492,155.985 44.582,155.600 44.782 C 155.490 44.839,154.950 44.913,154.400 44.946 C 153.850 44.979,153.220 45.119,153.000 45.257 C 152.543 45.543,149.153 46.189,148.700 46.075 C 148.535 46.034,148.400 46.192,148.400 46.427 C 148.400 46.662,148.075 46.751,147.677 46.624 C 147.279 46.498,146.245 46.739,145.379 47.161 C 144.513 47.582,143.674 47.846,143.514 47.747 C 143.354 47.648,142.777 47.859,142.232 48.216 C 141.688 48.572,141.143 48.850,141.021 48.832 C 140.165 48.708,139.587 48.855,139.769 49.150 C 139.888 49.343,139.314 49.609,138.493 49.741 C 137.672 49.874,136.493 50.455,135.874 51.032 C 135.254 51.609,134.647 51.980,134.524 51.857 C 134.401 51.735,133.949 52.031,133.520 52.517 C 133.090 53.003,132.856 53.130,132.999 52.800 C 133.168 52.410,133.058 52.446,132.684 52.902 C 132.368 53.288,131.545 53.800,130.855 54.041 C 130.165 54.281,129.600 54.731,129.600 55.039 C 129.600 55.348,129.234 55.600,128.787 55.600 C 128.341 55.600,127.871 55.870,127.745 56.200 C 127.618 56.530,127.264 56.800,126.957 56.800 C 126.651 56.800,126.400 57.081,126.400 57.424 C 126.400 57.767,126.220 57.936,126.000 57.800 C 125.780 57.664,125.600 57.830,125.600 58.169 C 125.600 58.508,125.150 58.898,124.600 59.036 C 124.050 59.174,123.600 59.418,123.600 59.579 C 123.600 59.740,123.140 60.081,122.577 60.337 C 122.015 60.594,121.653 60.962,121.773 61.156 C 121.893 61.350,121.615 61.607,121.155 61.728 C 120.683 61.851,120.437 62.136,120.589 62.383 C 120.738 62.623,120.708 62.770,120.522 62.710 C 120.336 62.649,119.738 63.031,119.192 63.559 C 118.647 64.086,118.470 64.375,118.800 64.200 C 119.565 63.796,119.197 64.142,116.355 66.503 C 115.121 67.528,113.885 68.912,113.609 69.579 C 113.333 70.245,112.948 70.691,112.754 70.571 C 112.559 70.451,112.400 70.633,112.400 70.976 C 112.400 71.319,112.265 71.555,112.100 71.500 C 111.935 71.445,111.728 71.580,111.640 71.800 C 111.552 72.020,111.192 72.438,110.840 72.730 C 110.343 73.141,110.334 73.197,110.800 72.980 C 111.130 72.826,110.725 73.275,109.900 73.979 C 109.075 74.683,108.400 75.515,108.400 75.829 C 108.400 76.143,108.254 76.400,108.075 76.400 C 107.633 76.400,105.939 78.732,105.827 79.495 C 105.778 79.834,105.402 80.356,104.992 80.655 C 104.582 80.955,104.416 81.206,104.624 81.213 C 104.831 81.220,104.667 81.478,104.260 81.786 C 103.810 82.127,103.639 82.553,103.824 82.873 C 103.991 83.163,103.987 83.273,103.814 83.117 C 103.399 82.742,102.041 84.441,102.273 85.045 C 102.372 85.305,102.127 85.761,101.727 86.058 C 101.327 86.356,100.945 86.870,100.878 87.200 C 100.811 87.530,100.496 88.000,100.178 88.244 C 99.860 88.488,99.600 88.961,99.600 89.295 C 99.600 89.629,99.331 90.125,99.002 90.398 C 98.673 90.672,98.194 91.594,97.939 92.447 C 97.683 93.301,97.342 94.000,97.181 94.000 C 97.021 94.000,96.774 94.612,96.634 95.360 C 96.494 96.108,96.114 96.940,95.789 97.209 C 95.465 97.478,95.200 98.036,95.200 98.449 C 95.200 98.862,95.017 99.200,94.792 99.200 C 94.556 99.200,94.486 99.663,94.625 100.300 C 94.789 101.055,94.745 101.231,94.484 100.860 C 94.204 100.463,94.033 100.699,93.834 101.760 C 93.685 102.552,93.373 103.200,93.139 103.200 C 92.906 103.200,92.810 103.448,92.926 103.751 C 93.042 104.054,92.936 104.504,92.689 104.751 C 92.442 104.998,92.387 105.200,92.566 105.200 C 92.745 105.200,92.597 105.650,92.237 106.200 C 91.876 106.750,91.660 107.200,91.756 107.200 C 91.852 107.200,91.592 108.127,91.178 109.259 C 90.764 110.392,90.533 111.492,90.664 111.704 C 90.795 111.916,90.696 112.217,90.443 112.374 C 90.190 112.530,89.871 113.854,89.735 115.317 C 89.598 116.780,89.343 117.888,89.167 117.780 C 88.992 117.671,88.845 117.902,88.840 118.291 C 88.814 120.450,88.254 124.757,88.019 124.612 C 87.649 124.383,87.610 127.670,87.633 156.700 C 87.650 178.139,87.572 181.600,87.075 181.600 C 86.758 181.600,86.267 181.878,85.985 182.218 C 85.634 182.641,85.115 182.757,84.336 182.586 C 83.636 182.432,83.200 182.502,83.200 182.768 C 83.200 183.006,82.975 183.201,82.700 183.202 C 82.425 183.204,81.699 183.466,81.087 183.786 C 80.342 184.174,80.070 184.206,80.264 183.883 C 80.484 183.516,80.415 183.509,79.977 183.854 C 79.660 184.103,78.815 184.433,78.100 184.586 C 77.385 184.738,76.800 185.010,76.800 185.188 C 76.800 185.499,75.702 185.871,73.656 186.255 C 73.136 186.352,72.447 186.696,72.123 187.020 C 71.800 187.343,71.370 187.505,71.168 187.380 C 70.965 187.255,70.800 187.338,70.800 187.564 C 70.800 187.790,70.530 187.871,70.200 187.745 C 69.870 187.618,69.600 187.714,69.600 187.957 C 69.600 188.201,69.150 188.400,68.600 188.400 C 68.050 188.400,67.600 188.599,67.600 188.843 C 67.600 189.086,67.330 189.182,67.000 189.055 C 66.670 188.929,66.400 188.999,66.400 189.213 C 66.400 189.426,66.049 189.600,65.620 189.600 C 65.191 189.600,64.656 189.915,64.432 190.300 C 64.181 190.730,64.020 190.799,64.012 190.477 C 64.002 190.056,63.786 190.064,62.900 190.517 C 62.295 190.826,61.080 191.412,60.200 191.819 C 59.320 192.227,58.330 192.774,58.000 193.036 C 57.670 193.297,56.813 193.636,56.097 193.788 C 55.357 193.945,54.903 194.242,55.047 194.475 C 55.207 194.735,54.988 194.787,54.450 194.616 C 53.946 194.456,53.600 194.520,53.600 194.773 C 53.600 195.008,53.330 195.200,53.000 195.200 C 52.670 195.200,52.400 195.395,52.400 195.633 C 52.400 195.872,52.177 195.992,51.904 195.901 C 51.631 195.810,51.187 195.930,50.917 196.168 C 49.563 197.363,49.172 197.609,48.456 197.719 C 48.028 197.784,47.356 198.099,46.962 198.419 C 46.538 198.763,46.368 198.798,46.544 198.505 C 46.746 198.168,46.642 198.086,46.221 198.247 C 45.879 198.378,45.600 198.632,45.600 198.811 C 45.600 198.990,45.060 199.255,44.400 199.400 C 43.740 199.545,43.200 199.829,43.200 200.032 C 43.200 200.234,42.987 200.400,42.726 200.400 C 42.465 200.400,41.863 200.765,41.388 201.211 C 40.914 201.657,40.112 202.101,39.608 202.198 C 39.103 202.296,38.386 202.651,38.014 202.988 C 37.642 203.324,37.126 203.600,36.869 203.600 C 36.611 203.600,36.400 203.780,36.400 204.000 C 36.400 204.220,36.158 204.400,35.861 204.400 C 35.565 204.400,34.907 204.760,34.400 205.200 C 33.893 205.640,33.309 206.000,33.102 206.000 C 32.443 206.000,30.816 207.481,31.114 207.811 C 31.271 207.985,31.100 208.020,30.733 207.889 C 30.336 207.747,29.973 207.893,29.836 208.251 C 29.709 208.581,29.443 208.750,29.245 208.628 C 29.046 208.505,28.781 208.674,28.654 209.002 C 28.528 209.331,28.149 209.600,27.813 209.600 C 27.476 209.600,27.200 209.780,27.200 210.000 C 27.200 210.220,26.975 210.355,26.700 210.300 C 26.425 210.245,26.245 210.425,26.300 210.700 C 26.355 210.975,26.034 211.200,25.587 211.200 C 25.130 211.200,24.640 211.563,24.467 212.030 C 24.299 212.486,24.031 212.842,23.873 212.820 C 23.346 212.747,20.801 214.667,21.069 214.935 C 21.214 215.081,21.160 215.200,20.948 215.200 C 20.040 215.200,15.764 219.253,15.373 220.484 C 15.246 220.884,14.975 221.108,14.771 220.982 C 14.567 220.856,14.400 220.963,14.400 221.219 C 14.400 221.475,13.950 222.039,13.400 222.471 C 12.850 222.904,12.400 223.496,12.400 223.786 C 12.400 224.077,12.130 224.418,11.800 224.545 C 11.470 224.671,11.200 225.051,11.200 225.387 C 11.200 225.724,11.032 226.000,10.827 226.000 C 10.492 226.000,9.870 227.306,9.820 228.115 C 9.809 228.288,9.552 228.582,9.249 228.770 C 8.946 228.957,8.821 229.311,8.972 229.555 C 9.124 229.800,9.057 230.000,8.824 230.000 C 8.591 230.000,8.400 230.330,8.400 230.733 C 8.400 231.137,8.275 231.592,8.122 231.745 C 7.311 232.556,6.876 243.328,7.618 244.222 C 7.891 244.551,8.007 244.926,7.876 245.057 C 7.745 245.188,7.901 245.558,8.223 245.880 C 8.544 246.201,8.711 246.621,8.592 246.812 C 8.314 247.262,9.795 248.062,10.212 247.686 C 10.386 247.529,10.409 247.609,10.263 247.864 C 9.963 248.389,12.157 250.400,13.031 250.400 C 13.344 250.400,13.600 250.593,13.600 250.829 C 13.600 251.393,14.643 252.424,14.927 252.140 C 15.048 252.018,15.519 252.178,15.972 252.495 C 16.424 252.812,16.689 253.178,16.559 253.308 C 16.428 253.438,17.060 253.766,17.961 254.036 C 18.862 254.306,19.600 254.708,19.600 254.930 C 19.600 255.152,19.718 255.215,19.863 255.070 C 20.008 254.925,20.368 255.007,20.663 255.252 C 20.958 255.497,21.200 255.565,21.200 255.403 C 21.200 255.241,21.672 255.417,22.249 255.795 C 22.941 256.249,23.187 256.299,22.972 255.941 C 22.713 255.510,22.765 255.496,23.233 255.874 C 23.867 256.387,27.348 257.651,27.876 257.560 C 28.054 257.530,28.290 257.541,28.400 257.585 C 28.729 257.716,30.452 257.958,33.000 258.231 C 34.320 258.372,35.599 258.648,35.843 258.845 C 36.087 259.042,37.977 259.307,40.043 259.434 C 42.109 259.561,43.971 259.830,44.180 260.032 C 44.749 260.583,46.508 260.499,46.162 259.938 C 45.967 259.623,46.054 259.586,46.437 259.823 C 47.576 260.527,70.373 261.057,71.586 260.408 C 72.128 260.117,72.435 260.133,72.638 260.461 C 72.809 260.737,72.749 260.816,72.489 260.655 C 72.251 260.508,71.950 260.557,71.822 260.765 C 71.425 261.407,73.056 261.662,77.108 261.589 C 79.249 261.551,81.720 261.607,82.600 261.714 C 83.480 261.821,86.450 262.039,89.200 262.199 C 91.950 262.358,94.380 262.599,94.600 262.733 C 95.084 263.029,95.470 263.092,98.800 263.423 C 100.230 263.564,101.571 263.842,101.780 264.040 C 102.345 264.575,102.892 264.475,102.547 263.900 C 102.333 263.543,102.436 263.553,102.906 263.934 C 103.268 264.228,103.740 264.360,103.955 264.228 C 104.169 264.095,104.458 264.170,104.596 264.393 C 104.734 264.617,105.647 264.800,106.624 264.800 C 107.673 264.800,108.400 264.984,108.400 265.250 C 108.400 265.534,108.832 265.614,109.572 265.466 C 110.310 265.318,110.816 265.410,110.940 265.716 C 111.072 266.040,111.147 266.050,111.168 265.747 C 111.191 265.423,111.627 265.447,112.700 265.830 C 113.525 266.124,114.515 266.373,114.900 266.382 C 115.285 266.392,115.600 266.593,115.600 266.829 C 115.600 267.064,116.005 267.218,116.500 267.169 C 117.359 267.085,118.012 267.252,119.800 268.013 C 120.240 268.200,121.230 268.475,122.000 268.623 C 122.770 268.771,123.623 269.072,123.895 269.291 C 124.167 269.510,124.650 269.589,124.969 269.467 C 125.288 269.345,125.605 269.404,125.674 269.598 C 125.743 269.792,126.275 270.013,126.856 270.090 C 127.436 270.166,128.194 270.463,128.538 270.749 C 128.883 271.035,129.353 271.153,129.582 271.011 C 129.812 270.869,130.001 270.898,130.003 271.076 C 130.005 271.254,130.455 271.608,131.004 271.863 C 131.758 272.213,131.936 272.213,131.732 271.863 C 131.584 271.608,131.823 271.715,132.263 272.100 C 132.703 272.485,133.374 272.800,133.755 272.800 C 134.136 272.800,134.352 272.953,134.237 273.141 C 134.121 273.328,134.769 273.704,135.677 273.976 C 136.585 274.248,137.582 274.724,137.892 275.035 C 138.203 275.346,138.810 275.600,139.241 275.600 C 139.672 275.600,140.129 275.870,140.255 276.200 C 140.382 276.530,140.736 276.800,141.043 276.800 C 141.349 276.800,141.600 276.977,141.600 277.192 C 141.600 277.408,142.037 277.694,142.571 277.828 C 143.105 277.963,143.639 278.326,143.759 278.636 C 143.878 278.946,144.341 279.200,144.787 279.200 C 145.250 279.200,145.600 279.464,145.600 279.813 C 145.600 280.149,145.897 280.539,146.261 280.679 C 146.624 280.818,147.540 281.533,148.295 282.266 C 149.051 283.000,149.833 283.600,150.034 283.600 C 150.235 283.600,150.355 283.825,150.300 284.100 C 150.245 284.375,150.407 284.561,150.660 284.513 C 150.913 284.466,151.231 284.871,151.368 285.413 C 151.504 285.956,151.839 286.400,152.111 286.400 C 152.384 286.400,152.844 286.779,153.133 287.242 C 153.543 287.898,153.547 288.015,153.151 287.770 C 152.871 287.597,153.080 288.069,153.614 288.820 C 154.148 289.570,154.589 290.435,154.593 290.742 C 154.597 291.049,154.997 291.564,155.483 291.887 L 156.366 292.475 156.283 288.037 C 156.237 285.597,156.306 283.600,156.435 283.600 C 156.564 283.600,156.702 282.760,156.741 281.734 C 156.780 280.708,157.009 279.630,157.250 279.339 C 157.492 279.048,157.576 278.358,157.437 277.805 C 157.298 277.252,157.345 276.800,157.541 276.800 C 157.737 276.800,158.015 275.914,158.158 274.830 C 158.302 273.747,158.584 272.802,158.785 272.730 C 159.089 272.622,159.405 271.466,159.567 269.876 C 159.585 269.698,159.765 269.655,159.967 269.780 C 160.170 269.905,160.451 269.480,160.592 268.837 C 160.733 268.193,161.085 267.576,161.373 267.466 C 161.661 267.355,162.024 266.755,162.179 266.132 C 162.334 265.510,162.987 264.142,163.630 263.094 C 164.274 262.046,164.800 260.921,164.800 260.594 C 164.800 260.267,164.991 260.000,165.224 260.000 C 165.457 260.000,165.536 259.820,165.400 259.600 C 165.264 259.380,165.341 259.200,165.572 259.200 C 165.802 259.200,166.105 258.483,166.245 257.607 C 166.385 256.731,166.657 256.112,166.850 256.231 C 167.042 256.350,167.200 256.167,167.200 255.824 C 167.200 254.714,167.230 254.613,167.851 253.665 C 168.188 253.151,168.372 252.639,168.260 252.527 C 168.148 252.415,168.414 251.687,168.851 250.909 C 169.288 250.131,169.551 249.249,169.435 248.948 C 169.320 248.646,169.372 248.400,169.552 248.400 C 169.731 248.400,169.894 247.848,169.913 247.173 C 169.942 246.150,169.852 246.025,169.374 246.422 C 168.966 246.760,168.800 246.768,168.800 246.449 C 168.800 246.202,168.967 246.000,169.171 246.000 C 169.376 246.000,169.781 245.775,170.073 245.500 C 171.656 244.007,171.977 243.887,171.764 244.864 C 171.652 245.379,171.475 246.405,171.371 247.143 C 171.267 247.882,170.996 248.834,170.769 249.259 C 170.542 249.683,170.468 250.383,170.605 250.815 C 170.742 251.247,170.673 251.600,170.451 251.600 C 170.230 251.600,169.923 252.876,169.769 254.434 C 169.616 255.993,169.355 257.050,169.190 256.783 C 169.018 256.505,168.769 257.173,168.607 258.349 C 168.452 259.477,168.141 260.400,167.916 260.400 C 167.691 260.400,167.609 260.790,167.733 261.266 C 167.872 261.798,167.648 262.570,167.155 263.264 C 166.712 263.886,166.474 264.596,166.626 264.842 C 166.778 265.088,166.710 265.408,166.476 265.553 C 166.241 265.698,165.957 266.324,165.845 266.943 C 165.732 267.563,165.453 268.295,165.224 268.571 C 164.994 268.848,164.925 269.192,165.070 269.337 C 165.215 269.482,165.123 269.600,164.867 269.600 C 164.610 269.600,164.421 269.735,164.447 269.900 C 164.603 270.884,164.348 271.615,163.937 271.361 C 163.617 271.163,163.547 271.353,163.709 271.975 C 163.851 272.515,163.630 273.434,163.158 274.276 C 162.684 275.119,162.473 276.000,162.628 276.488 C 162.780 276.966,162.677 277.429,162.378 277.614 C 161.512 278.149,161.637 294.792,162.508 294.798 C 162.677 294.799,162.707 295.230,162.575 295.756 C 162.443 296.282,162.530 296.833,162.768 296.980 C 163.005 297.127,163.200 297.687,163.200 298.224 C 163.200 298.761,163.363 299.200,163.563 299.200 C 163.762 299.200,163.831 299.560,163.716 300.000 C 163.601 300.440,163.696 300.800,163.926 300.800 C 164.393 300.800,165.010 302.321,164.861 303.100 C 164.808 303.375,164.939 303.600,165.151 303.600 C 165.363 303.600,165.652 304.126,165.793 304.768 C 165.934 305.411,166.491 306.413,167.031 306.996 C 167.571 307.579,167.892 308.251,167.745 308.489 C 167.585 308.749,167.663 308.809,167.938 308.638 C 168.231 308.457,168.400 308.659,168.400 309.189 C 168.400 309.649,168.670 310.129,169.000 310.255 C 169.330 310.382,169.600 310.671,169.600 310.899 C 169.600 311.126,169.915 311.570,170.300 311.886 C 170.725 312.234,170.764 312.345,170.400 312.168 C 170.054 312.000,170.139 312.221,170.600 312.687 C 171.040 313.133,171.533 313.421,171.695 313.328 C 171.858 313.235,171.872 313.467,171.727 313.845 C 171.549 314.311,171.615 314.438,171.932 314.242 C 172.216 314.067,172.400 314.208,172.400 314.600 C 172.400 314.956,172.573 315.140,172.785 315.009 C 172.996 314.879,173.532 315.483,173.976 316.353 C 174.420 317.223,175.802 318.805,177.047 319.868 C 178.292 320.930,179.744 322.205,180.273 322.700 C 180.803 323.195,181.381 323.600,181.558 323.600 C 181.735 323.600,182.294 324.140,182.800 324.800 C 183.306 325.460,183.950 326.000,184.231 326.000 C 184.513 326.000,185.058 326.315,185.443 326.700 C 185.828 327.085,186.283 327.400,186.454 327.400 C 186.625 327.400,187.038 327.760,187.370 328.200 C 187.703 328.640,187.980 328.874,187.987 328.719 C 187.994 328.565,188.478 328.881,189.063 329.423 C 189.647 329.965,190.201 330.332,190.293 330.240 C 190.386 330.147,190.943 330.569,191.531 331.177 C 192.119 331.784,192.808 332.209,193.063 332.120 C 193.317 332.031,193.812 332.368,194.163 332.868 C 194.513 333.369,194.805 333.603,194.812 333.389 C 194.819 333.175,195.010 333.319,195.237 333.708 C 195.464 334.098,195.818 334.312,196.025 334.185 C 196.231 334.057,196.400 334.244,196.400 334.600 C 196.400 334.956,196.556 335.151,196.747 335.033 C 196.937 334.915,197.415 335.175,197.809 335.609 C 198.202 336.044,198.886 336.400,199.329 336.400 C 199.771 336.400,200.010 336.524,199.858 336.675 C 199.558 336.976,202.475 338.916,203.915 339.373 C 204.417 339.532,204.694 339.848,204.544 340.091 C 204.378 340.359,204.465 340.407,204.770 340.218 C 205.072 340.032,205.501 340.252,205.873 340.784 C 206.258 341.333,206.721 341.562,207.129 341.406 C 207.485 341.269,207.647 341.286,207.490 341.443 C 207.197 341.736,208.161 342.416,210.100 343.283 C 210.705 343.554,211.200 343.927,211.200 344.111 C 211.200 344.296,211.378 344.337,211.595 344.203 C 211.813 344.069,212.486 344.418,213.091 344.979 C 213.697 345.541,214.419 346.023,214.696 346.050 C 214.973 346.078,215.380 346.145,215.600 346.200 C 215.820 346.255,216.191 346.322,216.424 346.350 C 216.657 346.378,216.736 346.580,216.600 346.800 C 216.464 347.020,216.713 347.200,217.153 347.200 C 217.593 347.200,218.069 347.387,218.210 347.616 C 218.435 347.980,220.463 348.993,225.060 351.039 C 225.754 351.348,226.744 351.603,227.260 351.606 C 228.014 351.611,228.081 351.689,227.600 352.000 C 227.100 352.323,227.133 352.396,227.800 352.440 C 228.240 352.469,228.780 352.534,229.000 352.585 C 229.220 352.636,229.760 352.708,230.200 352.745 C 230.799 352.795,230.866 352.897,230.466 353.151 C 230.060 353.408,230.132 353.541,230.766 353.707 C 231.255 353.835,231.603 353.734,231.606 353.463 C 231.610 353.150,231.717 353.165,231.936 353.509 C 232.113 353.790,232.682 354.100,233.200 354.200 C 233.718 354.300,234.265 354.581,234.415 354.825 C 234.566 355.069,234.803 355.257,234.943 355.244 C 235.747 355.166,237.600 355.761,237.600 356.097 C 237.600 356.315,237.960 356.399,238.400 356.284 C 238.840 356.169,239.200 356.238,239.200 356.437 C 239.200 356.637,239.740 356.800,240.400 356.800 C 241.060 356.800,241.600 357.001,241.600 357.247 C 241.600 357.496,241.953 357.601,242.400 357.484 C 242.840 357.369,243.200 357.418,243.200 357.593 C 243.200 357.768,243.425 357.894,243.700 357.873 C 244.628 357.802,247.396 358.501,247.977 358.952 C 248.417 359.294,248.483 359.282,248.253 358.900 C 248.088 358.625,248.128 358.400,248.343 358.400 C 248.558 358.400,248.793 358.564,248.867 358.764 C 248.940 358.964,249.990 359.249,251.200 359.397 C 252.410 359.545,253.571 359.831,253.780 360.033 C 253.989 360.235,254.349 360.397,254.580 360.394 C 254.811 360.391,254.730 360.213,254.400 360.000 C 254.039 359.767,253.990 359.610,254.276 359.606 C 254.538 359.603,254.859 359.772,254.989 359.982 C 255.119 360.192,255.849 360.315,256.613 360.255 C 257.376 360.195,258.000 360.268,258.000 360.417 C 258.000 360.567,262.500 360.725,268.000 360.769 C 273.500 360.813,278.000 360.702,278.000 360.523 C 278.000 360.344,278.945 360.223,280.100 360.253 C 281.255 360.284,282.290 360.173,282.400 360.006 C 282.597 359.709,286.245 359.131,287.788 359.153 C 288.221 359.159,288.672 359.007,288.790 358.816 C 288.909 358.624,289.813 358.347,290.800 358.200 C 291.787 358.053,292.711 357.745,292.853 357.515 C 292.994 357.285,293.331 357.234,293.600 357.400 C 293.869 357.566,294.212 357.504,294.362 357.261 C 294.512 357.019,294.987 356.765,295.417 356.699 C 295.848 356.632,296.425 356.436,296.700 356.265 C 296.975 356.093,297.200 356.075,297.200 356.225 C 297.200 356.375,297.488 356.259,297.840 355.967 C 298.193 355.674,298.773 355.392,299.129 355.340 C 299.486 355.287,299.992 354.953,300.253 354.596 C 300.514 354.239,300.832 353.954,300.959 353.962 C 302.190 354.046,307.200 350.212,307.200 349.187 C 307.200 348.961,307.470 348.671,307.800 348.545 C 308.130 348.418,308.400 347.878,308.400 347.345 C 308.400 346.811,308.675 346.269,309.012 346.140 C 309.398 345.992,309.536 345.628,309.385 345.153 C 309.249 344.724,309.337 344.400,309.591 344.400 C 309.893 344.400,310.040 342.822,310.048 339.500 C 310.068 331.583,310.396 326.318,310.978 324.603 C 311.277 323.721,311.521 322.320,311.521 321.489 C 311.520 320.658,311.733 319.721,311.994 319.407 C 312.255 319.092,312.353 318.647,312.211 318.418 C 312.069 318.188,312.104 318.000,312.289 318.000 C 312.763 318.000,313.627 315.567,313.326 315.080 C 313.178 314.841,313.278 314.801,313.571 314.982 C 313.904 315.188,314.034 315.045,313.971 314.544 C 313.919 314.135,314.021 313.467,314.197 313.060 C 314.715 311.859,313.549 311.441,312.665 312.510 C 312.261 313.000,312.047 313.175,312.189 312.900 C 312.630 312.046,311.686 312.350,310.636 313.400 C 310.086 313.950,309.493 314.404,309.318 314.409 C 309.143 314.414,308.550 314.789,308.000 315.244 C 307.450 315.698,307.270 315.935,307.600 315.771 C 307.932 315.605,308.059 315.627,307.885 315.818 C 307.712 316.008,307.082 316.225,306.485 316.300 C 305.888 316.375,305.175 316.732,304.900 317.095 C 304.615 317.470,304.400 317.548,304.400 317.276 C 304.400 316.649,302.845 316.692,301.652 317.354 C 300.595 317.940,296.126 317.781,295.324 317.129 C 295.062 316.916,294.522 316.783,294.124 316.833 C 292.846 316.994,288.400 316.309,288.400 315.951 C 288.400 315.761,287.995 315.667,287.500 315.743 C 287.005 315.819,286.330 315.748,286.000 315.587 C 284.067 314.641,283.315 314.360,282.978 314.459 C 282.770 314.520,282.150 314.321,281.600 314.017 C 281.050 313.713,280.510 313.471,280.400 313.478 C 280.008 313.505,278.183 312.627,277.100 311.892 C 276.495 311.482,276.000 311.261,276.000 311.402 C 276.000 311.543,275.526 311.285,274.946 310.829 C 274.366 310.373,273.641 310.000,273.334 310.000 C 273.026 310.000,272.678 309.746,272.559 309.436 C 272.439 309.126,271.931 308.769,271.429 308.643 C 269.016 308.037,267.242 302.430,268.892 300.625 C 269.281 300.198,269.600 299.643,269.600 299.391 C 269.600 298.863,272.002 296.616,272.600 296.585 C 272.820 296.573,272.951 296.333,272.890 296.052 C 272.830 295.771,272.966 295.655,273.193 295.796 C 273.420 295.936,273.713 295.770,273.845 295.428 C 273.976 295.085,274.233 294.896,274.414 295.009 C 274.596 295.121,274.855 295.035,274.989 294.817 C 275.124 294.600,275.856 294.126,276.617 293.765 C 277.378 293.404,278.000 292.949,278.000 292.754 C 278.000 292.559,278.360 292.400,278.800 292.400 C 279.240 292.400,279.600 292.240,279.600 292.043 C 279.600 291.847,280.072 291.568,280.648 291.424 C 281.225 291.279,281.958 290.899,282.277 290.580 C 282.596 290.261,283.190 290.000,283.596 290.000 C 284.702 290.000,285.625 289.563,285.374 289.158 C 285.183 288.849,286.191 288.622,286.518 288.900 C 286.582 288.955,287.144 288.666,287.767 288.259 C 288.458 287.806,288.772 287.728,288.572 288.059 C 288.306 288.501,288.360 288.508,288.869 288.096 C 289.212 287.818,290.281 287.484,291.246 287.352 C 292.211 287.220,293.180 286.971,293.400 286.798 C 293.814 286.472,296.304 286.042,297.924 286.015 C 298.435 286.007,298.737 285.821,298.600 285.600 C 298.464 285.380,298.528 285.200,298.743 285.200 C 298.958 285.200,299.224 285.425,299.335 285.700 C 299.493 286.092,299.544 286.093,299.568 285.705 C 299.592 285.335,300.345 285.273,302.543 285.459 C 304.553 285.629,305.575 285.564,305.767 285.254 C 306.130 284.666,308.668 284.664,309.031 285.250 C 309.213 285.544,310.189 285.630,311.836 285.498 C 313.225 285.386,314.464 285.397,314.588 285.521 C 314.713 285.646,315.306 285.787,315.907 285.834 C 316.508 285.882,317.571 286.103,318.270 286.324 C 318.968 286.546,319.672 286.608,319.834 286.463 C 319.996 286.319,319.980 286.456,319.799 286.768 C 319.551 287.195,319.639 287.270,320.155 287.073 C 320.563 286.916,320.742 286.970,320.597 287.205 C 320.463 287.422,320.554 287.600,320.800 287.600 C 321.046 287.600,321.144 287.768,321.017 287.972 C 320.891 288.177,320.981 288.465,321.218 288.611 C 321.804 288.974,322.468 290.675,322.759 292.563 C 322.988 294.047,324.307 295.057,324.459 293.865 C 324.492 293.609,324.555 293.130,324.600 292.800 C 324.645 292.470,324.708 291.975,324.741 291.700 C 324.773 291.425,325.025 291.245,325.300 291.300 C 325.588 291.358,325.787 291.019,325.768 290.500 C 325.751 290.005,325.886 289.600,326.068 289.600 C 326.251 289.600,326.400 289.161,326.400 288.624 C 326.400 288.087,326.580 287.536,326.800 287.400 C 327.020 287.264,327.197 286.848,327.194 286.476 C 327.189 285.893,327.134 285.883,326.800 286.400 C 326.529 286.820,326.410 286.846,326.406 286.487 C 326.403 286.206,326.677 285.868,327.016 285.738 C 327.867 285.412,327.627 274.916,326.756 274.364 C 326.357 274.111,326.341 274.011,326.700 274.006 C 327.346 273.998,327.339 273.400,326.686 272.729 C 326.403 272.438,326.144 271.804,326.112 271.319 C 326.007 269.756,323.425 266.614,322.643 267.097 C 322.441 267.222,322.405 267.116,322.562 266.862 C 322.719 266.608,322.691 266.400,322.499 266.400 C 322.308 266.400,321.771 266.046,321.307 265.613 C 320.842 265.181,319.968 264.737,319.364 264.628 C 318.759 264.518,318.149 264.242,318.008 264.013 C 317.867 263.785,317.177 263.665,316.476 263.747 C 315.774 263.828,315.200 263.715,315.200 263.495 C 315.200 263.249,314.625 263.206,313.700 263.384 C 312.875 263.542,311.750 263.691,311.200 263.713 C 310.650 263.736,309.962 263.990,309.671 264.277 C 309.381 264.565,308.706 264.800,308.171 264.800 C 307.637 264.800,307.200 264.969,307.200 265.175 C 307.200 265.382,306.390 265.672,305.400 265.821 C 304.410 265.969,303.600 266.234,303.600 266.408 C 303.600 266.582,303.212 266.624,302.737 266.500 C 302.183 266.354,301.969 266.427,302.139 266.702 C 302.303 266.966,301.756 267.236,300.702 267.410 C 299.766 267.564,298.784 267.864,298.521 268.077 C 298.257 268.289,297.447 268.557,296.721 268.671 C 295.994 268.785,295.305 269.033,295.188 269.221 C 295.071 269.409,294.216 269.684,293.288 269.832 C 292.360 269.981,291.600 270.242,291.600 270.414 C 291.600 270.585,291.212 270.624,290.737 270.500 C 290.183 270.354,289.969 270.427,290.139 270.702 C 290.303 270.966,289.756 271.236,288.702 271.410 C 287.766 271.564,286.820 271.829,286.600 271.999 C 286.380 272.169,285.570 272.441,284.800 272.604 C 284.030 272.767,283.272 273.103,283.115 273.350 C 282.958 273.598,282.643 273.822,282.415 273.850 C 282.187 273.877,281.775 273.929,281.500 273.964 C 281.225 274.000,280.460 274.492,279.800 275.058 C 279.140 275.625,278.853 275.950,279.162 275.782 C 279.535 275.579,279.628 275.632,279.438 275.938 C 279.281 276.192,278.976 276.400,278.759 276.400 C 278.070 276.400,273.999 279.675,274.228 280.045 C 274.348 280.240,274.184 280.400,273.862 280.400 C 273.541 280.400,272.765 280.993,272.139 281.718 C 271.512 282.443,271.164 282.758,271.365 282.418 C 271.566 282.078,271.102 282.430,270.334 283.200 C 269.566 283.970,268.919 284.751,268.896 284.936 C 268.872 285.121,268.544 285.499,268.166 285.776 C 267.787 286.052,267.585 286.451,267.715 286.662 C 267.845 286.873,267.513 287.376,266.976 287.779 C 266.439 288.182,266.000 288.729,266.000 288.995 C 266.000 289.260,265.640 289.893,265.200 290.400 C 264.760 290.907,264.400 291.459,264.400 291.627 C 264.400 291.794,263.773 292.577,263.007 293.366 C 261.672 294.740,260.400 295.245,260.400 294.400 C 260.400 294.180,260.209 294.000,259.976 294.000 C 259.743 294.000,259.680 294.225,259.835 294.500 C 259.991 294.775,259.723 294.594,259.241 294.097 C 258.759 293.601,257.913 292.899,257.362 292.538 C 256.810 292.177,256.094 291.368,255.769 290.741 C 255.445 290.113,254.903 289.600,254.566 289.600 C 254.229 289.600,254.048 289.445,254.165 289.256 C 254.437 288.816,252.164 286.769,251.804 287.130 C 251.655 287.278,251.593 287.193,251.667 286.940 C 251.740 286.687,251.497 286.147,251.127 285.740 C 249.795 284.276,247.375 281.642,246.100 280.269 C 245.385 279.499,244.800 278.684,244.800 278.458 C 244.800 278.232,244.592 277.919,244.338 277.762 C 244.025 277.568,243.985 277.657,244.215 278.038 C 244.503 278.517,244.453 278.519,243.877 278.051 C 243.505 277.749,243.200 277.336,243.200 277.134 C 243.200 276.690,242.583 275.888,241.058 274.351 C 240.429 273.718,240.032 273.200,240.175 273.200 C 240.317 273.200,239.661 272.451,238.717 271.537 C 237.773 270.622,237.270 270.020,237.600 270.199 C 237.930 270.378,237.413 269.784,236.451 268.878 C 235.489 267.973,234.469 266.784,234.185 266.235 C 233.900 265.687,233.469 265.005,233.226 264.719 C 231.432 262.610,230.744 261.870,230.977 262.300 C 231.125 262.575,231.148 262.800,231.027 262.800 C 230.906 262.800,230.479 262.125,230.079 261.300 C 229.678 260.475,229.137 259.845,228.875 259.900 C 228.456 259.988,228.375 259.829,228.408 258.992 C 228.431 258.428,225.699 255.634,225.409 255.925 C 225.257 256.076,225.193 255.986,225.267 255.724 C 225.398 255.254,224.208 253.521,222.542 251.757 C 222.071 251.257,221.751 250.782,221.832 250.702 C 221.912 250.621,221.443 249.969,220.789 249.253 C 220.135 248.537,219.600 247.853,219.600 247.733 C 219.600 247.613,219.195 247.020,218.700 246.413 C 218.205 245.807,217.542 244.936,217.227 244.477 C 216.912 244.018,216.528 243.721,216.374 243.816 C 216.219 243.912,215.875 243.465,215.610 242.824 C 215.344 242.182,214.862 241.556,214.538 241.432 C 214.214 241.307,214.060 241.026,214.196 240.806 C 214.332 240.586,214.002 239.966,213.464 239.428 C 212.925 238.889,212.586 238.348,212.709 238.224 C 212.832 238.101,212.723 238.000,212.467 238.000 C 212.210 238.000,212.000 237.749,212.000 237.443 C 212.000 237.136,211.719 236.778,211.375 236.646 C 211.031 236.514,210.861 236.224,210.998 236.003 C 211.135 235.781,211.093 235.600,210.904 235.600 C 210.715 235.600,210.332 234.967,210.052 234.194 C 209.773 233.420,209.397 232.878,209.217 232.989 C 209.038 233.100,208.645 232.889,208.345 232.519 C 207.970 232.056,207.956 231.940,208.300 232.147 C 208.578 232.314,208.800 232.254,208.800 232.011 C 208.800 231.771,208.530 231.471,208.200 231.345 C 207.870 231.218,207.600 230.929,207.600 230.701 C 207.600 230.474,207.285 230.030,206.900 229.714 C 206.515 229.399,206.467 229.280,206.793 229.451 C 207.133 229.630,207.006 229.279,206.493 228.627 C 206.002 228.003,205.600 227.146,205.600 226.722 C 205.600 226.299,205.440 226.052,205.244 226.173 C 205.048 226.294,204.770 225.765,204.626 224.996 C 204.482 224.228,204.192 223.600,203.982 223.600 C 203.772 223.600,203.600 223.389,203.600 223.131 C 203.600 222.874,203.345 222.379,203.033 222.031 C 201.940 220.815,200.750 203.492,201.558 200.567 C 201.859 199.477,201.856 198.958,201.548 198.768 C 201.243 198.579,201.253 198.415,201.581 198.212 C 201.837 198.053,202.005 197.536,201.954 197.062 C 201.772 195.382,202.491 188.800,202.856 188.800 C 203.060 188.800,203.159 188.305,203.074 187.700 C 202.821 185.876,203.919 184.099,204.610 185.216 C 204.752 185.445,205.212 185.523,205.634 185.389 C 206.055 185.256,206.400 185.322,206.400 185.538 C 206.400 185.753,207.119 186.051,207.998 186.200 C 208.877 186.348,209.691 186.624,209.807 186.812 C 209.924 187.000,210.824 187.275,211.809 187.422 C 212.794 187.570,213.600 187.858,213.600 188.063 C 213.600 188.268,213.825 188.403,214.100 188.364 C 215.007 188.236,217.200 188.892,217.200 189.293 C 217.200 189.509,217.470 189.582,217.800 189.455 C 218.130 189.329,218.400 189.399,218.400 189.613 C 218.400 189.826,218.535 189.966,218.700 189.925 C 219.393 189.751,222.387 190.498,222.201 190.798 C 222.090 190.978,222.359 191.031,222.799 190.916 C 223.247 190.799,223.600 190.904,223.600 191.153 C 223.600 191.399,223.735 191.579,223.900 191.553 C 224.891 191.396,226.010 191.660,225.800 192.000 C 225.664 192.220,225.968 192.427,226.476 192.461 C 228.156 192.572,228.287 192.608,228.927 193.139 C 229.304 193.452,229.914 193.554,230.431 193.390 C 230.970 193.219,231.206 193.266,231.054 193.513 C 230.915 193.737,231.464 194.035,232.303 194.193 C 233.125 194.347,233.889 194.617,233.999 194.792 C 234.110 194.968,234.878 195.202,235.707 195.313 C 236.536 195.423,237.481 195.735,237.807 196.006 C 238.282 196.400,238.401 196.389,238.406 195.949 C 238.411 195.516,238.481 195.508,238.736 195.909 C 238.913 196.190,239.469 196.498,239.970 196.594 C 240.471 196.691,241.110 196.960,241.390 197.192 C 241.670 197.424,242.194 197.501,242.554 197.362 C 242.915 197.224,243.449 197.309,243.742 197.552 C 244.338 198.046,248.991 199.600,249.876 199.600 C 250.207 199.600,250.327 199.795,250.161 200.063 C 249.965 200.380,250.146 200.455,250.737 200.300 C 251.212 200.176,251.600 200.238,251.600 200.437 C 251.600 200.637,251.735 200.779,251.900 200.753 C 253.002 200.579,254.013 200.856,253.761 201.263 C 253.565 201.580,253.746 201.655,254.337 201.500 C 254.812 201.376,255.200 201.408,255.200 201.571 C 255.200 201.734,255.425 201.882,255.700 201.901 C 256.827 201.979,258.119 202.400,258.718 202.885 C 259.182 203.261,259.274 203.267,259.058 202.908 C 258.871 202.596,259.245 202.657,260.081 203.076 C 262.807 204.439,262.891 204.471,262.623 204.037 C 262.480 203.805,262.956 203.913,263.681 204.276 C 264.407 204.638,265.326 205.093,265.725 205.287 C 266.124 205.480,266.821 205.520,267.275 205.376 C 267.811 205.206,268.008 205.264,267.836 205.542 C 267.669 205.812,268.308 206.066,269.578 206.235 C 270.682 206.381,271.488 206.658,271.369 206.851 C 271.250 207.043,271.598 207.200,272.142 207.200 C 273.090 207.200,272.963 209.163,271.961 210.000 C 271.829 210.110,271.699 210.470,271.672 210.800 C 271.552 212.281,271.247 213.566,270.831 214.342 C 270.583 214.805,270.490 215.618,270.623 216.148 C 270.756 216.679,270.679 217.227,270.453 217.367 C 270.197 217.526,270.041 220.189,270.041 224.422 C 270.041 229.245,270.168 231.143,270.479 230.951 C 270.777 230.767,270.831 231.021,270.650 231.744 C 270.485 232.400,270.616 233.258,270.992 233.984 C 271.326 234.631,271.600 235.529,271.600 235.980 C 271.600 236.431,271.780 236.800,272.000 236.800 C 272.220 236.800,272.400 237.005,272.400 237.256 C 272.400 237.507,272.715 237.970,273.100 238.286 C 273.556 238.659,273.590 238.768,273.200 238.597 C 272.870 238.453,273.095 238.791,273.700 239.349 C 274.838 240.396,275.177 241.074,274.300 240.547 C 273.960 240.343,273.976 240.463,274.349 240.923 C 274.651 241.295,275.150 241.600,275.458 241.600 C 275.765 241.600,276.220 242.044,276.467 242.587 C 276.715 243.131,277.050 243.493,277.213 243.392 C 277.376 243.291,277.607 243.585,277.728 244.045 C 277.848 244.504,278.129 244.767,278.353 244.629 C 278.577 244.491,278.944 244.722,279.169 245.143 C 279.395 245.564,280.077 246.033,280.685 246.186 C 281.294 246.338,281.888 246.618,282.005 246.807 C 282.121 246.996,282.739 247.246,283.376 247.361 C 284.014 247.477,284.640 247.713,284.768 247.886 C 285.049 248.267,285.703 248.440,287.800 248.689 C 288.680 248.793,289.571 249.041,289.780 249.239 C 290.259 249.694,295.600 249.718,295.600 249.266 C 295.600 249.082,296.720 248.891,298.088 248.841 C 299.457 248.792,300.807 248.561,301.088 248.327 C 301.370 248.093,301.600 248.036,301.600 248.200 C 301.600 248.364,301.905 248.251,302.277 247.949 C 302.737 247.576,302.857 247.560,302.653 247.900 C 302.488 248.175,302.543 248.400,302.776 248.400 C 303.009 248.400,303.200 248.240,303.200 248.045 C 303.200 247.850,304.055 247.563,305.100 247.406 C 306.145 247.250,307.121 246.927,307.268 246.689 C 307.415 246.451,307.855 246.210,308.244 246.152 C 310.058 245.886,310.816 245.549,310.555 245.126 C 310.402 244.879,310.439 244.773,310.638 244.891 C 311.203 245.226,312.882 244.456,312.596 243.993 C 312.455 243.766,312.489 243.614,312.670 243.655 C 313.282 243.793,314.993 242.895,316.121 241.844 C 316.737 241.270,317.334 240.800,317.447 240.800 C 317.798 240.800,320.400 237.910,320.400 237.520 C 320.400 237.318,320.556 237.249,320.747 237.367 C 320.937 237.485,321.415 237.225,321.809 236.791 C 322.202 236.356,322.379 236.000,322.203 236.000 C 322.026 236.000,322.419 235.487,323.075 234.859 C 324.087 233.892,324.737 232.866,324.886 232.000 C 324.905 231.890,325.208 231.581,325.560 231.313 C 326.108 230.896,326.114 230.822,325.600 230.801 C 325.125 230.781,325.146 230.691,325.700 230.368 C 326.085 230.144,326.400 229.737,326.400 229.465 C 326.400 228.647,327.877 226.010,328.170 226.303 C 328.320 226.453,328.324 226.266,328.178 225.888 C 328.022 225.480,328.104 225.200,328.381 225.200 C 328.637 225.200,328.745 225.035,328.620 224.832 C 328.495 224.630,328.682 224.175,329.035 223.822 C 329.389 223.469,329.576 222.914,329.451 222.590 C 329.327 222.265,329.419 222.000,329.655 222.000 C 329.892 222.000,329.989 221.748,329.870 221.439 C 329.752 221.131,329.778 220.756,329.928 220.606 C 330.229 220.305,330.277 220.074,330.350 218.576 C 330.378 218.013,330.542 217.640,330.715 217.748 C 330.888 217.855,331.072 217.550,331.122 217.071 C 331.173 216.592,331.256 215.840,331.307 215.400 C 331.398 214.620,332.593 214.069,334.697 213.838 C 335.191 213.784,335.716 213.618,335.864 213.470 C 336.367 212.966,340.000 213.168,340.006 213.700 C 340.011 214.066,340.105 214.054,340.358 213.655 C 340.880 212.830,341.137 213.897,340.788 215.448 C 340.349 217.404,340.747 224.881,341.322 225.455 C 341.475 225.608,341.600 226.140,341.600 226.638 C 341.600 227.136,341.869 227.812,342.199 228.142 C 342.528 228.471,342.689 229.024,342.556 229.370 C 342.423 229.717,342.514 230.000,342.757 230.000 C 343.001 230.000,343.200 230.230,343.200 230.511 C 343.200 230.792,343.560 231.330,344.000 231.707 C 344.440 232.084,344.800 232.268,344.800 232.116 C 344.800 231.964,345.016 232.056,345.280 232.320 C 345.892 232.932,350.000 232.964,350.000 232.357 C 350.000 232.114,350.279 232.022,350.621 232.153 C 350.962 232.284,351.140 232.226,351.015 232.024 C 350.890 231.823,351.142 231.545,351.574 231.408 C 352.006 231.271,352.471 230.806,352.608 230.374 C 352.747 229.937,353.053 229.709,353.297 229.860 C 353.579 230.034,353.645 229.893,353.481 229.466 C 353.340 229.100,353.396 228.800,353.605 228.800 C 353.814 228.800,354.106 228.305,354.254 227.700 C 354.402 227.095,354.689 226.491,354.892 226.358 C 355.095 226.224,355.363 225.355,355.487 224.426 C 355.649 223.220,355.822 222.889,356.092 223.268 C 356.360 223.646,356.412 223.540,356.272 222.900 C 356.164 222.405,356.238 222.000,356.437 222.000 C 356.637 222.000,356.800 221.471,356.800 220.824 C 356.800 220.177,356.998 219.525,357.240 219.375 C 357.491 219.220,357.581 218.606,357.450 217.951 C 357.324 217.318,357.379 216.800,357.573 216.800 C 357.767 216.800,358.055 215.045,358.214 212.900 C 358.373 210.755,358.705 208.865,358.951 208.700 C 359.266 208.490,359.221 208.282,358.800 208.006 C 358.470 207.789,358.399 207.609,358.642 207.606 C 359.179 207.599,359.319 199.626,358.794 198.993 C 358.603 198.763,358.353 198.055,358.238 197.420 C 358.123 196.785,357.797 196.118,357.514 195.939 C 357.132 195.696,357.125 195.611,357.487 195.606 C 357.756 195.603,357.872 195.331,357.746 195.002 C 357.619 194.674,357.367 194.497,357.185 194.609 C 357.003 194.722,356.797 194.355,356.727 193.794 C 356.657 193.234,356.420 192.770,356.200 192.764 C 355.980 192.757,355.682 192.433,355.537 192.042 C 354.777 189.987,348.400 192.409,348.400 194.753 C 348.400 194.999,348.226 195.200,348.013 195.200 C 347.799 195.200,347.729 195.470,347.855 195.800 C 347.982 196.130,347.902 196.400,347.678 196.400 C 347.153 196.400,345.600 199.600,345.600 200.683 C 345.600 201.140,345.330 201.618,345.000 201.745 C 344.670 201.871,344.400 202.409,344.400 202.938 C 344.400 203.468,344.130 204.126,343.800 204.400 C 343.470 204.674,343.200 205.225,343.200 205.625 C 343.200 206.025,343.013 206.469,342.784 206.610 C 342.555 206.752,342.477 207.212,342.611 207.634 C 342.744 208.055,342.678 208.400,342.462 208.400 C 342.247 208.400,341.948 209.126,341.798 210.012 L 341.526 211.625 336.913 211.512 L 332.301 211.400 332.307 206.200 C 332.310 203.340,332.167 200.909,331.990 200.797 C 331.813 200.686,331.550 199.805,331.406 198.841 C 331.262 197.877,330.887 196.830,330.572 196.515 C 330.258 196.200,330.000 195.606,330.000 195.194 C 330.000 194.782,329.600 194.165,329.111 193.823 C 328.622 193.480,328.332 193.200,328.467 193.200 C 328.700 193.200,325.905 190.354,324.636 189.300 C 324.305 189.025,323.651 188.742,323.184 188.670 C 322.717 188.599,322.191 188.310,322.017 188.028 C 321.815 187.701,321.372 187.618,320.800 187.800 C 320.187 187.995,319.987 187.945,320.174 187.643 C 320.346 187.364,320.077 187.200,319.447 187.200 C 318.897 187.200,318.326 187.004,318.178 186.764 C 318.020 186.508,317.378 186.428,316.626 186.569 C 315.920 186.701,315.206 186.672,315.038 186.505 C 314.598 186.064,305.089 186.041,304.530 186.479 C 304.272 186.682,303.415 186.727,302.626 186.578 C 301.828 186.429,300.971 186.487,300.696 186.709 C 300.280 187.045,297.554 187.669,296.506 187.668 C 296.338 187.668,295.940 187.878,295.623 188.134 C 295.157 188.511,295.114 188.485,295.400 188.000 C 295.688 187.511,295.645 187.488,295.164 187.876 C 294.579 188.349,292.933 188.813,291.400 188.936 C 290.960 188.971,290.360 189.227,290.068 189.504 C 289.775 189.781,289.382 189.913,289.195 189.797 C 289.008 189.682,288.740 189.773,288.600 190.000 C 288.460 190.227,288.176 190.309,287.970 190.181 C 287.763 190.054,287.491 190.220,287.364 190.550 C 287.237 190.881,286.608 191.266,285.967 191.407 C 285.325 191.548,284.800 191.919,284.800 192.232 C 284.800 192.544,284.596 192.800,284.347 192.800 C 284.097 192.800,283.446 193.295,282.900 193.900 C 282.353 194.505,282.041 194.730,282.206 194.400 C 282.370 194.070,281.500 194.859,280.271 196.154 C 279.041 197.448,278.073 198.651,278.118 198.825 C 278.163 199.000,277.840 199.440,277.400 199.801 C 276.960 200.163,276.844 200.334,277.141 200.180 C 277.513 199.989,277.468 200.230,276.998 200.947 C 276.621 201.523,276.154 201.895,275.961 201.776 C 275.767 201.656,275.699 201.793,275.809 202.079 C 275.951 202.451,275.556 202.606,274.430 202.621 C 273.561 202.632,272.940 202.497,273.049 202.321 C 273.215 202.052,272.803 201.973,271.398 202.005 C 271.287 202.007,270.545 201.737,269.749 201.405 C 268.953 201.072,267.977 200.800,267.580 200.800 C 267.182 200.800,266.587 200.530,266.257 200.200 C 265.544 199.487,265.032 199.405,265.443 200.069 C 265.602 200.327,265.303 200.237,264.777 199.869 C 264.252 199.501,263.311 199.200,262.687 199.200 C 261.930 199.200,261.648 199.046,261.839 198.737 C 262.034 198.421,261.857 198.344,261.282 198.495 C 260.818 198.616,260.354 198.509,260.251 198.258 C 260.124 197.948,260.053 197.965,260.032 198.309 C 260.008 198.686,259.741 198.649,259.000 198.163 C 258.450 197.803,258.000 197.639,258.000 197.800 C 258.000 197.961,257.586 197.821,257.080 197.489 C 256.325 196.995,254.251 196.489,252.676 196.415 C 252.498 196.407,252.482 196.192,252.639 195.937 C 252.835 195.620,252.654 195.545,252.063 195.700 C 251.588 195.824,251.200 195.762,251.200 195.563 C 251.200 195.363,250.761 195.200,250.224 195.200 C 249.687 195.200,249.127 195.005,248.980 194.768 C 248.831 194.527,248.273 194.445,247.723 194.584 C 247.086 194.743,246.825 194.684,246.990 194.416 C 247.138 194.177,246.853 193.980,246.324 193.954 C 245.816 193.928,245.220 193.866,245.000 193.815 C 244.780 193.764,244.274 193.694,243.876 193.661 C 243.478 193.627,243.267 193.416,243.406 193.190 C 243.545 192.965,243.511 192.811,243.330 192.849 C 242.686 192.983,239.600 192.293,239.600 192.016 C 239.600 191.744,238.982 191.612,237.508 191.569 C 237.127 191.558,236.716 191.388,236.595 191.192 C 236.474 190.996,236.081 190.948,235.722 191.085 C 235.247 191.268,235.159 191.190,235.400 190.800 C 235.638 190.415,235.555 190.332,235.105 190.504 C 234.760 190.637,234.365 190.632,234.228 190.494 C 234.090 190.356,233.757 190.198,233.488 190.143 C 233.220 190.087,232.464 189.932,231.809 189.797 C 231.153 189.662,230.523 189.400,230.409 189.216 C 230.294 189.031,229.494 188.768,228.630 188.631 C 227.767 188.494,226.830 188.191,226.548 187.957 C 226.266 187.723,225.874 187.631,225.677 187.753 C 225.480 187.874,224.624 187.620,223.774 187.187 C 222.918 186.750,221.890 186.508,221.465 186.643 C 220.963 186.802,220.794 186.734,220.974 186.443 C 221.212 186.056,220.904 185.970,219.398 186.005 C 219.287 186.007,218.545 185.737,217.749 185.405 C 216.953 185.072,215.977 184.800,215.580 184.800 C 215.182 184.800,214.587 184.530,214.257 184.200 C 213.544 183.487,213.032 183.405,213.443 184.069 C 213.602 184.327,213.303 184.237,212.777 183.869 C 212.252 183.501,211.311 183.200,210.687 183.200 C 209.930 183.200,209.648 183.046,209.839 182.737 C 210.034 182.421,209.857 182.344,209.282 182.495 C 208.818 182.616,208.354 182.509,208.251 182.258 C 208.124 181.948,208.053 181.965,208.032 182.309 C 208.008 182.686,207.741 182.649,207.000 182.163 C 206.450 181.803,206.000 181.625,206.000 181.768 C 206.000 181.911,205.663 181.848,205.251 181.627 C 204.419 181.182,204.425 178.879,205.259 178.363 C 205.511 178.208,205.606 177.793,205.471 177.440 C 205.336 177.088,205.399 176.800,205.613 176.800 C 205.826 176.800,205.976 176.665,205.946 176.500 C 205.828 175.834,206.523 173.600,206.850 173.600 C 207.043 173.600,207.201 173.375,207.202 173.100 C 207.204 172.825,207.466 172.099,207.786 171.487 C 208.182 170.727,208.213 170.451,207.883 170.616 C 207.617 170.750,207.749 170.576,208.176 170.230 C 208.604 169.883,208.806 169.600,208.627 169.600 C 208.448 169.600,208.503 169.358,208.748 169.063 C 208.993 168.768,209.060 168.379,208.897 168.199 C 208.733 168.019,208.827 168.003,209.105 168.162 C 209.448 168.360,209.686 168.069,209.850 167.252 C 209.982 166.592,210.340 165.955,210.645 165.838 C 210.950 165.721,211.200 165.259,211.200 164.813 C 211.200 164.366,211.380 164.000,211.600 164.000 C 211.820 164.000,212.000 163.730,212.000 163.400 C 212.000 163.070,212.146 162.800,212.324 162.800 C 212.501 162.800,212.996 162.517,213.424 162.170 C 213.851 161.824,213.930 161.674,213.600 161.836 C 213.270 161.999,213.584 161.561,214.298 160.864 C 215.012 160.167,216.167 159.012,216.864 158.298 C 217.561 157.584,217.984 157.253,217.804 157.562 C 217.583 157.940,217.627 158.030,217.938 157.838 C 218.192 157.681,218.400 157.293,218.400 156.976 C 218.400 156.659,218.705 156.400,219.078 156.400 C 219.451 156.400,220.239 155.937,220.829 155.372 C 221.817 154.425,222.542 154.111,223.924 154.031 C 224.212 154.014,224.337 153.822,224.203 153.605 C 224.066 153.384,224.215 153.307,224.539 153.432 C 224.858 153.554,225.238 153.462,225.383 153.227 C 225.528 152.992,225.997 152.800,226.424 152.800 C 226.851 152.800,227.200 152.636,227.200 152.435 C 227.200 152.235,227.508 152.116,227.885 152.171 C 228.262 152.227,228.757 152.118,228.985 151.930 C 231.161 150.134,231.600 149.544,231.600 148.419 C 231.600 147.749,231.810 147.200,232.067 147.200 C 232.323 147.200,232.424 147.091,232.290 146.957 C 232.157 146.823,232.487 146.240,233.024 145.661 C 233.561 145.082,234.000 144.376,234.000 144.092 C 234.000 143.807,234.270 143.471,234.600 143.345 C 234.930 143.218,235.200 142.817,235.200 142.453 C 235.200 142.090,235.560 141.568,236.000 141.293 C 236.440 141.018,236.800 140.544,236.800 140.239 C 236.800 139.935,237.070 139.582,237.400 139.455 C 237.730 139.329,238.000 138.949,238.000 138.613 C 238.000 138.276,238.189 138.000,238.420 138.000 C 238.652 138.000,239.104 137.371,239.425 136.602 C 239.746 135.832,240.232 135.247,240.505 135.302 C 240.777 135.356,240.955 135.175,240.900 134.900 C 240.845 134.625,241.070 134.400,241.400 134.400 C 241.730 134.400,242.000 134.228,242.000 134.017 C 242.000 133.508,244.971 130.400,245.457 130.400 C 245.666 130.400,246.541 129.680,247.400 128.800 C 248.259 127.920,249.196 127.200,249.481 127.200 C 249.767 127.200,250.000 127.020,250.000 126.800 C 250.000 126.580,250.191 126.400,250.424 126.400 C 250.657 126.400,250.736 126.580,250.600 126.800 C 250.464 127.020,250.543 127.200,250.776 127.200 C 251.009 127.200,251.200 127.034,251.200 126.832 C 251.200 126.629,252.370 126.338,253.800 126.185 C 255.230 126.032,256.400 125.728,256.400 125.510 C 256.400 125.283,256.843 125.225,257.438 125.374 C 258.009 125.517,258.687 125.460,258.944 125.246 C 259.365 124.897,261.220 124.529,264.000 124.244 C 264.550 124.187,265.270 124.034,265.600 123.904 C 266.456 123.564,269.540 123.132,271.300 123.104 C 272.125 123.091,272.800 122.949,272.800 122.788 C 272.800 122.627,274.555 122.365,276.700 122.207 C 278.845 122.048,280.860 121.712,281.177 121.459 C 281.622 121.105,281.685 121.114,281.453 121.500 C 281.288 121.775,281.333 122.000,281.553 122.000 C 281.773 122.000,282.072 121.808,282.217 121.573 C 282.390 121.293,283.370 121.240,285.043 121.419 C 286.752 121.602,287.788 121.542,288.154 121.238 C 288.902 120.617,309.291 120.607,310.450 121.227 C 310.947 121.493,312.043 121.559,313.235 121.395 C 314.612 121.206,315.200 121.263,315.200 121.588 C 315.200 121.842,315.515 122.009,315.900 121.958 C 317.046 121.807,321.363 122.469,321.870 122.874 C 322.129 123.080,322.579 123.214,322.870 123.171 C 323.796 123.035,326.000 123.684,326.000 124.093 C 326.000 124.309,326.264 124.384,326.587 124.260 C 326.910 124.136,327.288 124.219,327.428 124.445 C 327.567 124.670,327.912 124.766,328.195 124.657 C 328.477 124.549,329.074 124.717,329.522 125.030 C 329.969 125.343,330.620 125.491,330.967 125.357 C 331.315 125.224,331.600 125.314,331.600 125.557 C 331.600 125.801,331.966 126.000,332.413 126.000 C 332.859 126.000,333.333 126.280,333.464 126.623 C 333.596 126.966,333.959 127.148,334.272 127.028 C 334.588 126.907,334.733 126.986,334.597 127.205 C 334.463 127.422,334.633 127.600,334.976 127.600 C 335.319 127.600,335.600 127.780,335.600 128.000 C 335.600 128.220,336.005 128.400,336.500 128.399 C 337.516 128.399,337.739 123.023,336.881 119.227 C 336.661 118.252,336.572 117.217,336.683 116.927 C 336.795 116.637,336.711 116.400,336.498 116.400 C 336.285 116.400,336.164 115.910,336.230 115.310 C 336.295 114.711,336.136 113.957,335.875 113.634 C 335.503 113.174,335.509 113.112,335.900 113.347 C 336.175 113.512,336.400 113.472,336.400 113.257 C 336.400 113.042,336.232 112.807,336.026 112.733 C 335.720 112.624,335.181 109.741,335.089 107.718 C 335.077 107.452,334.940 107.314,334.784 107.410 C 334.542 107.560,334.091 105.387,333.890 103.100 C 333.856 102.715,333.693 102.400,333.527 102.400 C 333.361 102.400,333.326 102.138,333.448 101.819 C 333.571 101.499,333.399 100.848,333.066 100.373 C 332.733 99.897,332.567 99.229,332.698 98.888 C 332.836 98.530,332.768 98.373,332.536 98.516 C 332.310 98.656,332.166 98.380,332.205 97.881 C 332.242 97.397,332.137 96.730,331.970 96.400 C 331.196 94.866,330.333 92.688,330.181 91.885 C 329.711 89.398,329.503 88.813,329.167 89.020 C 328.965 89.145,328.788 89.102,328.772 88.924 C 328.616 87.083,328.334 86.237,327.723 85.774 C 327.325 85.472,327.163 85.220,327.362 85.213 C 327.561 85.206,327.450 84.885,327.116 84.500 C 326.781 84.115,326.390 83.305,326.246 82.700 C 326.102 82.095,325.814 81.600,325.605 81.600 C 325.396 81.600,325.340 81.300,325.481 80.934 C 325.643 80.510,325.578 80.366,325.301 80.538 C 325.036 80.701,324.753 80.295,324.580 79.503 C 324.423 78.787,323.893 77.826,323.401 77.369 C 322.910 76.912,322.289 75.877,322.023 75.069 C 321.756 74.261,321.375 73.600,321.177 73.600 C 320.978 73.600,320.702 73.150,320.564 72.600 C 320.426 72.050,320.063 71.600,319.757 71.600 C 319.450 71.600,319.200 71.240,319.200 70.800 C 319.200 70.360,318.959 70.000,318.664 70.000 C 318.370 70.000,317.923 69.550,317.673 69.000 C 317.422 68.450,317.023 68.000,316.785 68.000 C 316.547 68.000,316.457 67.831,316.585 67.624 C 316.713 67.417,316.184 66.742,315.409 66.124 C 314.634 65.506,313.994 64.820,313.987 64.600 C 313.966 63.932,312.020 61.932,311.287 61.825 C 310.909 61.769,310.600 61.531,310.600 61.296 C 310.600 60.801,308.854 59.200,308.315 59.200 C 308.116 59.200,308.064 59.020,308.200 58.800 C 308.336 58.580,308.167 58.400,307.824 58.400 C 307.481 58.400,307.200 58.209,307.200 57.976 C 307.200 57.743,307.020 57.664,306.800 57.800 C 306.580 57.936,306.400 57.857,306.400 57.624 C 306.400 57.391,306.100 57.200,305.733 57.200 C 305.367 57.200,305.178 57.089,305.314 56.952 C 305.450 56.816,305.292 56.435,304.962 56.105 C 304.632 55.775,304.274 55.593,304.167 55.700 C 304.060 55.807,303.419 55.378,302.744 54.747 C 302.068 54.116,301.164 53.600,300.734 53.600 C 300.304 53.600,300.058 53.430,300.187 53.222 C 300.315 53.014,299.760 52.661,298.954 52.438 C 298.147 52.216,297.082 51.653,296.587 51.188 C 296.092 50.722,295.442 50.304,295.143 50.257 C 294.844 50.210,293.993 49.866,293.251 49.492 C 292.510 49.119,291.745 48.911,291.551 49.030 C 291.358 49.149,291.200 49.057,291.200 48.824 C 291.200 48.591,290.840 48.400,290.400 48.400 C 289.960 48.400,289.600 48.236,289.600 48.035 C 289.600 47.835,289.155 47.719,288.611 47.779 C 288.067 47.839,287.718 47.733,287.835 47.544 C 287.952 47.355,287.587 47.200,287.024 47.200 C 286.461 47.200,286.000 46.999,286.000 46.753 C 286.000 46.507,285.649 46.398,285.219 46.511 C 284.790 46.623,284.385 46.573,284.319 46.399 C 284.254 46.225,283.132 45.976,281.826 45.845 C 280.520 45.715,279.345 45.434,279.214 45.222 C 279.083 45.010,278.621 44.838,278.188 44.840 C 276.422 44.847,273.000 44.325,272.807 44.019 C 272.693 43.839,271.835 43.725,270.900 43.766 C 269.965 43.808,269.200 43.718,269.200 43.568 C 269.200 43.417,268.467 43.284,267.571 43.272 C 266.675 43.259,265.718 43.064,265.446 42.838 C 265.174 42.612,264.152 42.447,263.175 42.471 C 262.199 42.495,261.040 42.419,260.600 42.301 C 260.160 42.183,258.045 41.954,255.900 41.792 C 253.755 41.630,252.000 41.366,252.000 41.205 C 252.000 41.045,251.145 40.897,250.100 40.876 C 245.420 40.785,239.367 40.283,239.020 39.957 C 238.499 39.468,237.093 39.504,237.399 39.999 C 237.563 40.264,237.294 40.264,236.597 39.999 C 236.021 39.780,233.895 39.594,231.874 39.585 C 229.854 39.577,223.070 39.483,216.800 39.376 C 209.475 39.251,205.186 39.326,204.800 39.585 M186.000 40.800 C 186.000 41.020,185.610 41.200,185.133 41.200 C 184.657 41.200,184.378 41.312,184.515 41.448 C 184.875 41.808,186.800 41.256,186.800 40.792 C 186.800 40.577,186.620 40.400,186.400 40.400 C 186.180 40.400,186.000 40.580,186.000 40.800 M178.000 41.334 C 178.000 41.687,178.578 41.889,179.700 41.929 C 180.872 41.970,181.219 41.875,180.819 41.621 C 180.500 41.418,180.107 41.334,179.947 41.433 C 179.786 41.532,179.542 41.430,179.404 41.207 C 179.038 40.614,178.000 40.709,178.000 41.334 M181.600 41.400 C 181.600 41.730,181.780 42.000,182.000 42.000 C 182.220 42.000,182.400 41.730,182.400 41.400 C 182.400 41.070,182.220 40.800,182.000 40.800 C 181.780 40.800,181.600 41.070,181.600 41.400 M142.300 160.720 C 141.695 160.793,141.200 160.996,141.200 161.171 C 141.200 161.345,140.168 161.595,138.906 161.725 C 137.645 161.855,136.553 162.140,136.481 162.358 C 136.408 162.577,136.064 162.646,135.716 162.513 C 135.344 162.369,134.862 162.574,134.542 163.011 C 134.244 163.419,134.000 163.608,134.000 163.430 C 134.000 163.253,133.528 163.417,132.951 163.795 C 132.261 164.248,132.014 164.298,132.231 163.941 C 132.412 163.644,131.939 163.868,131.180 164.439 C 130.421 165.011,129.139 165.695,128.332 165.960 C 127.525 166.224,126.648 166.702,126.383 167.020 C 126.118 167.339,125.675 167.600,125.398 167.600 C 125.120 167.600,124.794 167.978,124.674 168.440 C 124.553 168.903,124.262 169.162,124.027 169.017 C 123.792 168.872,123.600 168.943,123.600 169.176 C 123.600 169.409,123.423 169.600,123.207 169.600 C 122.695 169.600,117.600 174.695,117.600 175.207 C 117.600 175.423,117.409 175.600,117.176 175.600 C 116.943 175.600,116.872 175.792,117.017 176.027 C 117.162 176.262,116.903 176.553,116.440 176.674 C 115.978 176.794,115.600 177.120,115.600 177.398 C 115.600 177.675,115.339 178.118,115.020 178.383 C 114.702 178.648,114.224 179.525,113.960 180.332 C 113.695 181.139,113.011 182.421,112.439 183.180 C 111.868 183.939,111.640 184.414,111.933 184.236 C 112.226 184.058,111.988 184.669,111.404 185.593 C 110.821 186.518,110.436 187.516,110.549 187.811 C 110.662 188.107,110.582 188.406,110.370 188.477 C 110.159 188.547,109.871 189.594,109.732 190.802 C 109.592 192.011,109.295 193.119,109.071 193.265 C 108.520 193.626,108.169 207.831,108.695 208.498 C 108.913 208.774,109.020 209.495,108.932 210.100 C 108.844 210.705,108.939 211.200,109.143 211.200 C 109.346 211.200,109.606 211.785,109.720 212.500 C 109.835 213.215,110.021 214.160,110.134 214.600 C 110.246 215.040,110.353 215.636,110.369 215.924 C 110.386 216.212,110.568 216.343,110.774 216.216 C 110.980 216.089,111.271 216.798,111.420 217.792 C 111.569 218.787,111.836 219.600,112.014 219.600 C 112.191 219.600,112.452 220.125,112.593 220.767 C 112.734 221.408,113.091 222.026,113.387 222.140 C 113.683 222.253,114.046 222.900,114.195 223.576 C 114.343 224.253,114.630 224.705,114.833 224.580 C 115.035 224.455,115.200 224.633,115.200 224.976 C 115.200 225.319,115.410 225.600,115.667 225.600 C 115.923 225.600,116.031 225.702,115.906 225.827 C 115.782 225.952,116.202 226.588,116.840 227.241 C 117.478 227.893,118.000 228.681,118.000 228.990 C 118.000 229.300,118.208 229.681,118.462 229.838 C 118.765 230.026,118.824 229.931,118.632 229.562 C 118.472 229.253,118.624 229.349,118.970 229.776 C 119.317 230.204,119.600 230.709,119.600 230.900 C 119.600 231.091,119.767 231.144,119.971 231.018 C 120.175 230.892,120.457 231.151,120.598 231.594 C 120.739 232.037,121.091 232.400,121.380 232.400 C 121.670 232.400,122.006 232.778,122.126 233.240 C 122.247 233.702,122.537 233.963,122.770 233.819 C 123.003 233.675,123.653 234.017,124.215 234.578 C 124.777 235.140,125.389 235.600,125.575 235.600 C 125.762 235.600,126.022 235.881,126.154 236.225 C 126.286 236.569,126.561 236.748,126.765 236.622 C 126.969 236.496,127.378 236.619,127.675 236.896 C 128.661 237.817,130.683 238.783,131.008 238.489 C 131.184 238.330,131.210 238.406,131.066 238.658 C 130.782 239.156,131.614 239.600,132.833 239.600 C 133.255 239.600,133.600 239.788,133.600 240.018 C 133.600 240.247,133.825 240.392,134.100 240.339 C 134.879 240.190,136.400 240.807,136.400 241.274 C 136.400 241.504,136.760 241.599,137.200 241.484 C 137.640 241.369,138.000 241.412,138.000 241.580 C 138.000 241.749,139.115 242.003,140.478 242.145 C 141.840 242.287,143.055 242.554,143.178 242.736 C 143.501 243.220,155.200 243.275,155.200 242.793 C 155.200 242.577,155.391 242.400,155.624 242.400 C 155.857 242.400,155.936 242.580,155.800 242.800 C 155.664 243.020,155.728 243.200,155.943 243.200 C 156.158 243.200,156.393 243.029,156.467 242.820 C 156.540 242.612,157.590 242.330,158.800 242.194 C 160.010 242.058,161.054 241.798,161.119 241.616 C 161.185 241.434,161.557 241.368,161.947 241.470 C 162.337 241.572,162.881 241.384,163.157 241.052 C 163.433 240.719,163.897 240.539,164.189 240.651 C 164.480 240.763,164.840 240.659,164.987 240.421 C 165.135 240.182,165.423 240.091,165.628 240.217 C 165.832 240.344,166.000 240.257,166.000 240.024 C 166.000 239.791,166.360 239.600,166.800 239.600 C 167.240 239.600,167.600 239.426,167.600 239.213 C 167.600 238.999,167.847 238.920,168.148 239.036 C 168.450 239.151,168.809 238.954,168.946 238.598 C 169.082 238.241,169.377 238.062,169.600 238.200 C 169.823 238.338,170.109 238.181,170.236 237.851 C 170.363 237.521,170.721 237.348,171.033 237.468 C 171.345 237.588,171.600 237.486,171.600 237.243 C 171.600 236.999,171.870 236.800,172.200 236.800 C 172.530 236.800,172.800 236.609,172.800 236.376 C 172.800 236.143,172.980 236.064,173.200 236.200 C 173.420 236.336,173.600 236.167,173.600 235.824 C 173.600 235.467,173.942 235.200,174.400 235.200 C 174.840 235.200,175.200 235.014,175.200 234.787 C 175.200 234.561,175.515 234.258,175.900 234.114 C 176.810 233.776,181.776 228.810,182.114 227.900 C 182.258 227.515,182.561 227.200,182.787 227.200 C 183.014 227.200,183.200 226.840,183.200 226.400 C 183.200 225.942,183.467 225.600,183.824 225.600 C 184.167 225.600,184.336 225.420,184.200 225.200 C 184.064 224.980,184.143 224.800,184.376 224.800 C 184.609 224.800,184.800 224.530,184.800 224.200 C 184.800 223.870,184.999 223.600,185.243 223.600 C 185.486 223.600,185.588 223.345,185.468 223.033 C 185.348 222.721,185.521 222.363,185.851 222.236 C 186.181 222.109,186.338 221.823,186.200 221.600 C 186.062 221.377,186.241 221.082,186.598 220.946 C 186.954 220.809,187.151 220.450,187.036 220.148 C 186.920 219.847,186.999 219.600,187.213 219.600 C 187.426 219.600,187.600 219.240,187.600 218.800 C 187.600 218.360,187.791 218.000,188.024 218.000 C 188.257 218.000,188.344 217.832,188.217 217.628 C 188.091 217.423,188.182 217.135,188.421 216.987 C 188.659 216.840,188.763 216.480,188.651 216.189 C 188.539 215.897,188.719 215.433,189.052 215.157 C 189.384 214.881,189.572 214.337,189.470 213.947 C 189.368 213.557,189.434 213.185,189.616 213.119 C 189.798 213.054,190.058 212.010,190.194 210.800 C 190.330 209.590,190.612 208.540,190.820 208.467 C 191.029 208.393,191.200 208.158,191.200 207.943 C 191.200 207.728,191.020 207.664,190.800 207.800 C 190.580 207.936,190.400 207.857,190.400 207.624 C 190.400 207.391,190.577 207.200,190.793 207.200 C 191.275 207.200,191.220 195.501,190.736 195.178 C 190.554 195.055,190.287 193.840,190.145 192.478 C 190.003 191.115,189.749 190.000,189.580 190.000 C 189.412 190.000,189.369 189.640,189.484 189.200 C 189.599 188.760,189.504 188.400,189.274 188.400 C 188.807 188.400,188.190 186.879,188.339 186.100 C 188.392 185.825,188.247 185.600,188.018 185.600 C 187.788 185.600,187.600 185.255,187.600 184.833 C 187.600 183.614,187.156 182.782,186.658 183.066 C 186.406 183.210,186.330 183.184,186.489 183.008 C 186.783 182.683,185.817 180.661,184.896 179.675 C 184.619 179.378,184.496 178.969,184.622 178.765 C 184.748 178.561,184.569 178.286,184.225 178.154 C 183.881 178.022,183.600 177.762,183.600 177.575 C 183.600 177.389,183.140 176.777,182.578 176.215 C 182.017 175.653,181.675 175.003,181.819 174.770 C 181.963 174.537,181.702 174.247,181.240 174.126 C 180.778 174.006,180.400 173.670,180.400 173.380 C 180.400 173.091,180.037 172.739,179.594 172.598 C 179.151 172.457,178.892 172.175,179.018 171.971 C 179.144 171.767,179.091 171.600,178.900 171.600 C 178.709 171.600,178.204 171.317,177.776 170.970 C 177.349 170.624,177.253 170.472,177.562 170.632 C 177.931 170.824,178.026 170.765,177.838 170.462 C 177.681 170.208,177.300 170.000,176.990 170.000 C 176.681 170.000,175.893 169.478,175.241 168.840 C 174.588 168.202,173.952 167.782,173.827 167.906 C 173.702 168.031,173.600 167.923,173.600 167.667 C 173.600 167.410,173.319 167.200,172.976 167.200 C 172.633 167.200,172.455 167.035,172.580 166.833 C 172.705 166.630,172.253 166.343,171.576 166.195 C 170.900 166.046,170.253 165.683,170.140 165.387 C 170.026 165.091,169.408 164.734,168.767 164.593 C 168.125 164.452,167.600 164.191,167.600 164.014 C 167.600 163.836,166.787 163.569,165.792 163.420 C 164.798 163.271,164.089 162.980,164.216 162.774 C 164.343 162.568,164.212 162.386,163.924 162.369 C 163.636 162.353,163.040 162.246,162.600 162.134 C 162.160 162.021,161.215 161.835,160.500 161.720 C 159.785 161.606,159.200 161.341,159.200 161.132 C 159.200 160.923,158.661 160.837,158.002 160.941 C 157.343 161.045,156.695 160.953,156.561 160.737 C 156.341 160.382,145.206 160.368,142.300 160.720 M168.153 246.621 C 168.290 246.979,168.222 247.138,167.993 246.995 C 167.774 246.860,167.482 247.041,167.346 247.398 C 167.209 247.754,166.850 247.951,166.548 247.836 C 166.247 247.720,165.999 247.754,165.997 247.913 C 165.996 248.071,165.448 248.511,164.779 248.892 C 164.110 249.273,163.672 249.408,163.805 249.192 C 163.938 248.976,163.857 248.800,163.624 248.800 C 163.391 248.800,163.200 248.978,163.200 249.195 C 163.200 249.413,162.480 249.706,161.600 249.846 C 160.720 249.987,160.000 250.242,160.000 250.414 C 160.000 250.585,159.612 250.624,159.137 250.500 C 158.546 250.345,158.365 250.420,158.561 250.737 C 158.752 251.045,158.472 251.201,157.724 251.204 C 155.789 251.212,153.606 251.687,153.832 252.051 C 153.950 252.243,153.632 252.413,153.124 252.429 C 150.984 252.495,148.991 252.865,148.867 253.219 C 148.793 253.429,148.558 253.600,148.343 253.600 C 148.128 253.600,148.088 253.375,148.253 253.100 C 148.487 252.711,148.425 252.704,147.972 253.070 C 147.443 253.497,143.208 254.159,141.500 254.081 C 141.115 254.064,140.800 254.221,140.800 254.430 C 140.800 254.651,140.107 254.699,139.139 254.544 C 138.066 254.372,137.565 254.420,137.726 254.680 C 137.880 254.929,137.032 255.109,135.487 255.154 C 134.119 255.195,132.955 255.357,132.900 255.515 C 132.845 255.673,131.855 255.776,130.700 255.744 C 129.545 255.712,128.420 255.830,128.200 256.006 C 127.980 256.183,127.080 256.361,126.200 256.402 C 121.673 256.615,122.901 255.714,127.592 255.381 C 129.788 255.225,131.503 254.967,131.404 254.807 C 131.305 254.647,132.704 254.400,134.512 254.259 C 136.321 254.118,138.250 253.890,138.800 253.753 C 139.350 253.616,140.250 253.509,140.800 253.517 C 141.350 253.524,142.001 253.363,142.246 253.160 C 142.492 252.957,143.437 252.748,144.346 252.696 C 145.255 252.643,146.000 252.507,146.000 252.393 C 146.000 252.279,146.675 252.218,147.500 252.258 C 148.325 252.297,149.204 252.160,149.454 251.954 C 149.703 251.748,150.556 251.555,151.349 251.525 C 152.498 251.482,152.701 251.363,152.350 250.940 C 151.879 250.373,152.318 250.084,153.700 250.050 C 157.312 249.963,158.000 249.884,158.000 249.559 C 158.000 249.353,158.430 249.293,158.956 249.425 C 159.482 249.557,160.033 249.470,160.180 249.232 C 160.327 248.995,160.847 248.800,161.335 248.800 C 161.823 248.800,162.652 248.499,163.177 248.131 C 163.703 247.763,163.994 247.686,163.824 247.960 C 163.477 248.522,164.802 247.867,166.169 246.800 C 166.628 246.441,166.820 246.401,166.645 246.700 C 166.484 246.975,166.524 247.200,166.734 247.200 C 166.943 247.200,167.218 246.930,167.345 246.600 C 167.638 245.836,167.854 245.841,168.153 246.621 M122.799 256.500 C 122.799 256.665,122.395 256.815,121.900 256.833 C 121.405 256.852,120.595 256.912,120.100 256.966 C 119.263 257.059,118.948 256.785,119.387 256.347 C 119.696 256.037,122.797 256.177,122.799 256.500 M117.013 257.180 C 116.707 257.673,114.140 257.750,113.845 257.274 C 113.735 257.094,114.460 256.905,115.458 256.853 C 116.644 256.792,117.182 256.905,117.013 257.180 M112.293 257.440 C 112.161 257.573,111.366 257.745,110.526 257.824 C 109.267 257.941,109.175 257.906,110.000 257.623 C 111.189 257.215,112.633 257.100,112.293 257.440 M101.905 258.675 C 101.522 258.775,100.802 258.779,100.305 258.683 C 99.807 258.587,100.120 258.505,101.000 258.501 C 101.880 258.496,102.287 258.575,101.905 258.675 M55.100 274.557 C 54.257 275.197,54.201 275.600,54.957 275.600 C 55.264 275.600,55.618 275.330,55.745 275.000 C 55.871 274.670,56.256 274.400,56.600 274.400 C 56.944 274.400,57.329 274.670,57.455 275.000 C 57.693 275.619,58.800 275.849,58.800 275.280 C 58.800 274.072,56.366 273.596,55.100 274.557 M155.439 292.694 C 154.912 293.221,155.247 294.000,156.000 294.000 C 156.440 294.000,156.800 293.749,156.800 293.443 C 156.800 292.839,155.828 292.305,155.439 292.694 " stroke="none" fill="#141414" fill-rule="evenodd"></path><path id="path1" d="M184.200 40.800 C 184.060 41.027,184.396 41.200,184.976 41.200 C 185.539 41.200,186.000 41.020,186.000 40.800 C 186.000 40.580,185.651 40.400,185.224 40.400 C 184.797 40.400,184.336 40.580,184.200 40.800 M179.416 41.227 C 179.561 41.461,179.776 41.558,179.893 41.441 C 180.010 41.324,180.442 41.408,180.853 41.628 C 181.432 41.938,181.600 41.890,181.600 41.414 C 181.600 40.996,181.210 40.800,180.376 40.800 C 179.612 40.800,179.252 40.960,179.416 41.227 M282.900 121.476 C 283.285 121.576,283.915 121.576,284.300 121.476 C 284.685 121.375,284.370 121.293,283.600 121.293 C 282.830 121.293,282.515 121.375,282.900 121.476 M337.309 125.200 C 337.309 126.190,337.387 126.595,337.482 126.100 C 337.578 125.605,337.578 124.795,337.482 124.300 C 337.387 123.805,337.309 124.210,337.309 125.200 M137.314 143.000 C 137.317 144.100,137.395 144.503,137.487 143.895 C 137.579 143.286,137.577 142.386,137.482 141.895 C 137.387 141.403,137.311 141.900,137.314 143.000 M276.384 201.223 C 275.905 201.896,275.579 202.513,275.661 202.594 C 275.743 202.676,276.214 202.126,276.708 201.371 C 277.823 199.671,277.571 199.556,276.384 201.223 M201.354 206.000 C 201.354 208.750,201.418 209.875,201.496 208.500 C 201.574 207.125,201.574 204.875,201.496 203.500 C 201.418 202.125,201.354 203.250,201.354 206.000 M336.900 213.487 C 337.505 213.578,338.495 213.578,339.100 213.487 C 339.705 213.395,339.210 213.320,338.000 213.320 C 336.790 213.320,336.295 213.395,336.900 213.487 M152.217 250.372 C 151.829 251.000,152.567 251.152,153.116 250.558 C 153.539 250.100,153.526 250.000,153.039 250.000 C 152.714 250.000,152.344 250.168,152.217 250.372 M100.305 258.683 C 100.802 258.779,101.522 258.775,101.905 258.675 C 102.287 258.575,101.880 258.496,101.000 258.501 C 100.120 258.505,99.807 258.587,100.305 258.683 M78.705 261.483 C 79.202 261.579,79.922 261.575,80.305 261.475 C 80.687 261.375,80.280 261.296,79.400 261.301 C 78.520 261.305,78.207 261.387,78.705 261.483 M55.880 274.653 C 55.318 275.215,55.624 275.600,56.633 275.600 C 57.282 275.600,57.605 275.414,57.500 275.100 C 57.308 274.522,56.292 274.241,55.880 274.653 " stroke="none" fill="#181414" fill-rule="evenodd"></path><path id="path2" d="M184.200 40.800 C 184.060 41.027,184.396 41.200,184.976 41.200 C 185.539 41.200,186.000 41.020,186.000 40.800 C 186.000 40.580,185.651 40.400,185.224 40.400 C 184.797 40.400,184.336 40.580,184.200 40.800 M179.416 41.227 C 179.561 41.461,179.776 41.558,179.893 41.441 C 180.010 41.324,180.442 41.408,180.853 41.628 C 181.432 41.938,181.600 41.890,181.600 41.414 C 181.600 40.996,181.210 40.800,180.376 40.800 C 179.612 40.800,179.252 40.960,179.416 41.227 M282.900 121.476 C 283.285 121.576,283.915 121.576,284.300 121.476 C 284.685 121.375,284.370 121.293,283.600 121.293 C 282.830 121.293,282.515 121.375,282.900 121.476 M337.309 125.200 C 337.309 126.190,337.387 126.595,337.482 126.100 C 337.578 125.605,337.578 124.795,337.482 124.300 C 337.387 123.805,337.309 124.210,337.309 125.200 M137.314 143.000 C 137.317 144.100,137.395 144.503,137.487 143.895 C 137.579 143.286,137.577 142.386,137.482 141.895 C 137.387 141.403,137.311 141.900,137.314 143.000 M276.384 201.223 C 275.905 201.896,275.579 202.513,275.661 202.594 C 275.743 202.676,276.214 202.126,276.708 201.371 C 277.823 199.671,277.571 199.556,276.384 201.223 M201.354 206.000 C 201.354 208.750,201.418 209.875,201.496 208.500 C 201.574 207.125,201.574 204.875,201.496 203.500 C 201.418 202.125,201.354 203.250,201.354 206.000 M336.900 213.487 C 337.505 213.578,338.495 213.578,339.100 213.487 C 339.705 213.395,339.210 213.320,338.000 213.320 C 336.790 213.320,336.295 213.395,336.900 213.487 M152.217 250.372 C 151.829 251.000,152.567 251.152,153.116 250.558 C 153.539 250.100,153.526 250.000,153.039 250.000 C 152.714 250.000,152.344 250.168,152.217 250.372 M100.305 258.683 C 100.802 258.779,101.522 258.775,101.905 258.675 C 102.287 258.575,101.880 258.496,101.000 258.501 C 100.120 258.505,99.807 258.587,100.305 258.683 M78.705 261.483 C 79.202 261.579,79.922 261.575,80.305 261.475 C 80.687 261.375,80.280 261.296,79.400 261.301 C 78.520 261.305,78.207 261.387,78.705 261.483 M55.880 274.653 C 55.318 275.215,55.624 275.600,56.633 275.600 C 57.282 275.600,57.605 275.414,57.500 275.100 C 57.308 274.522,56.292 274.241,55.880 274.653 " stroke="none" fill="#181414" fill-rule="evenodd"></path><path id="path3" d="M184.200 40.800 C 184.060 41.027,184.396 41.200,184.976 41.200 C 185.539 41.200,186.000 41.020,186.000 40.800 C 186.000 40.580,185.651 40.400,185.224 40.400 C 184.797 40.400,184.336 40.580,184.200 40.800 M179.416 41.227 C 179.561 41.461,179.776 41.558,179.893 41.441 C 180.010 41.324,180.442 41.408,180.853 41.628 C 181.432 41.938,181.600 41.890,181.600 41.414 C 181.600 40.996,181.210 40.800,180.376 40.800 C 179.612 40.800,179.252 40.960,179.416 41.227 M282.900 121.476 C 283.285 121.576,283.915 121.576,284.300 121.476 C 284.685 121.375,284.370 121.293,283.600 121.293 C 282.830 121.293,282.515 121.375,282.900 121.476 M337.309 125.200 C 337.309 126.190,337.387 126.595,337.482 126.100 C 337.578 125.605,337.578 124.795,337.482 124.300 C 337.387 123.805,337.309 124.210,337.309 125.200 M137.314 143.000 C 137.317 144.100,137.395 144.503,137.487 143.895 C 137.579 143.286,137.577 142.386,137.482 141.895 C 137.387 141.403,137.311 141.900,137.314 143.000 M276.384 201.223 C 275.905 201.896,275.579 202.513,275.661 202.594 C 275.743 202.676,276.214 202.126,276.708 201.371 C 277.823 199.671,277.571 199.556,276.384 201.223 M201.354 206.000 C 201.354 208.750,201.418 209.875,201.496 208.500 C 201.574 207.125,201.574 204.875,201.496 203.500 C 201.418 202.125,201.354 203.250,201.354 206.000 M336.900 213.487 C 337.505 213.578,338.495 213.578,339.100 213.487 C 339.705 213.395,339.210 213.320,338.000 213.320 C 336.790 213.320,336.295 213.395,336.900 213.487 M152.217 250.372 C 151.829 251.000,152.567 251.152,153.116 250.558 C 153.539 250.100,153.526 250.000,153.039 250.000 C 152.714 250.000,152.344 250.168,152.217 250.372 M100.305 258.683 C 100.802 258.779,101.522 258.775,101.905 258.675 C 102.287 258.575,101.880 258.496,101.000 258.501 C 100.120 258.505,99.807 258.587,100.305 258.683 M78.705 261.483 C 79.202 261.579,79.922 261.575,80.305 261.475 C 80.687 261.375,80.280 261.296,79.400 261.301 C 78.520 261.305,78.207 261.387,78.705 261.483 M55.880 274.653 C 55.318 275.215,55.624 275.600,56.633 275.600 C 57.282 275.600,57.605 275.414,57.500 275.100 C 57.308 274.522,56.292 274.241,55.880 274.653 " stroke="none" fill="#181414" fill-rule="evenodd"></path><path id="path4" d="M184.200 40.800 C 184.060 41.027,184.396 41.200,184.976 41.200 C 185.539 41.200,186.000 41.020,186.000 40.800 C 186.000 40.580,185.651 40.400,185.224 40.400 C 184.797 40.400,184.336 40.580,184.200 40.800 M179.416 41.227 C 179.561 41.461,179.776 41.558,179.893 41.441 C 180.010 41.324,180.442 41.408,180.853 41.628 C 181.432 41.938,181.600 41.890,181.600 41.414 C 181.600 40.996,181.210 40.800,180.376 40.800 C 179.612 40.800,179.252 40.960,179.416 41.227 M282.900 121.476 C 283.285 121.576,283.915 121.576,284.300 121.476 C 284.685 121.375,284.370 121.293,283.600 121.293 C 282.830 121.293,282.515 121.375,282.900 121.476 M337.309 125.200 C 337.309 126.190,337.387 126.595,337.482 126.100 C 337.578 125.605,337.578 124.795,337.482 124.300 C 337.387 123.805,337.309 124.210,337.309 125.200 M137.314 143.000 C 137.317 144.100,137.395 144.503,137.487 143.895 C 137.579 143.286,137.577 142.386,137.482 141.895 C 137.387 141.403,137.311 141.900,137.314 143.000 M276.384 201.223 C 275.905 201.896,275.579 202.513,275.661 202.594 C 275.743 202.676,276.214 202.126,276.708 201.371 C 277.823 199.671,277.571 199.556,276.384 201.223 M201.354 206.000 C 201.354 208.750,201.418 209.875,201.496 208.500 C 201.574 207.125,201.574 204.875,201.496 203.500 C 201.418 202.125,201.354 203.250,201.354 206.000 M336.900 213.487 C 337.505 213.578,338.495 213.578,339.100 213.487 C 339.705 213.395,339.210 213.320,338.000 213.320 C 336.790 213.320,336.295 213.395,336.900 213.487 M152.217 250.372 C 151.829 251.000,152.567 251.152,153.116 250.558 C 153.539 250.100,153.526 250.000,153.039 250.000 C 152.714 250.000,152.344 250.168,152.217 250.372 M100.305 258.683 C 100.802 258.779,101.522 258.775,101.905 258.675 C 102.287 258.575,101.880 258.496,101.000 258.501 C 100.120 258.505,99.807 258.587,100.305 258.683 M78.705 261.483 C 79.202 261.579,79.922 261.575,80.305 261.475 C 80.687 261.375,80.280 261.296,79.400 261.301 C 78.520 261.305,78.207 261.387,78.705 261.483 M55.880 274.653 C 55.318 275.215,55.624 275.600,56.633 275.600 C 57.282 275.600,57.605 275.414,57.500 275.100 C 57.308 274.522,56.292 274.241,55.880 274.653 " stroke="none" fill="#181414" fill-rule="evenodd"></path></g></svg>