<svg xmlns="http://www.w3.org/2000/svg" version="1.1" xmlns:xlink="http://www.w3.org/1999/xlink" xmlns:svgjs="http://svgjs.dev/svgjs" viewBox="0 0 800 800"><defs><linearGradient x1="50%" y1="0%" x2="50%" y2="100%" id="ssscribble-grad"><stop stop-color="hsl(206, 75%, 49%)" stop-opacity="1" offset="0%"></stop><stop stop-color="hsl(331, 90%, 56%)" stop-opacity="1" offset="100%"></stop></linearGradient></defs><g fill="none" stroke-width="1.25" stroke="url(#ssscribble-grad)" stroke-linecap="round" stroke-dasharray="49"><path d="M1003.6 319.33C1054.08 340.35 1084.52 361.47 1083.03 382.95 1051.01 404.86 1000.05 427.97 949.08 453.02 915.78 479.53 909.8 509.08 930.03 542.23 968.04 577.11 1006.88 615.25 1031.72 655.59 1034.3 694.53 1011.19 731.8 968.51 764.11 916.47 788.21 867.37 802.25 831.08 804.2 838.99 765.32 888.45 804.1 859.16 882.32 824.6 933.94 783.37 970.89 739.97 983.31 696.64 970.24 657.45 937.14 623.94 898.1 596.09 872.82 574.36 873.45 557.51 905.29 540.33 989.2 515.23 1048.51 501 982.07 491.21 937.81 478.83 922.82 463.62 947.65 448.4 1002.22 430.31 1059.38 409.29 1089.09 388.27 1075.73 364.81 1026.12 339.08 966.69 313.35 927.27 285.39 925.61 255.53 959.39 226.01 1011.06 195.27 1052.27 164.24 1062.55 135.09 1036.72 107.57 983.88 83.4 924.9 51.06 902.33 74.94 962.48 84.4 905.2 78.22 850.52 60.13 798.53 28.82 758.66 -13.33 735.85 -62.16 730.69 -110.69 738.74 -156.35 777.38 -75.55 729.55 -90.55 677.86 -130.8 639.11 -183.33 600.86 -233.2 564.74 -265.29 529.36 -269.35 497.19 -244.16 468.16 -201.31 440.26 -156.53 414.81 -128.67 391.25 -131.34 368.08 -163.91 346.08 -214.39 325.06 -262.62 304.04 -287.35 284.49 -279.08 266.71 -241.84 249.33 -189.29 234.43 -140.79 222.68 -155.35 204.82 -218.7 201.24 -158.4 190.05 -105.88 171.7 -59.19 143.81 -27.34 105.78 -14.96 60.76 -20.74 11.51 -38.82 -36 -74.39 -85.98 -88.92 -77.4 -53.55 -34.66 -15.93 -14.73 27 -13.07 70.75 -36.11 113.2 -81.57 150.54 -139.04 181.62 -192.26 206.58 -224.59 225.45 -226.14 239.74 -197.38 264.23 -141.33 304.21 -278 325.63 -245.03 340.93 -189.75 359.08 -142.26 380.1 -128.88 401.12 -158.58 424.52 -213.6 450.16 -264.03 475.86 -284.71 503.86 -263.55 533.91 -211.18 563.78 -151.81 595.21 -111.41 627.32 -105.06 657.86 -132.88 687.28 -177.73 713.84 -216.97 735.98 -233.4 752.63 -216.92 762.19 -172.89 765.63 -115.1 761.8 -61.63 751.75 -26.66 734.57 -23.96 730.34 -97.8 764.39 -110.32 803.67 -93.94 851.38 -59.98 901.03 -14.93 943.94 35.43 973.12 83.13 982.64 123.19 972.67 153.65 946.35 173.12 912.58 183.54 885.3 185.75 873.88 184.01 885.9 181.5 921.64 177.59 972.55 176.78 1024.45 180.04 1061.58 185.03 1072.09 194.42 1052.45 207.55 1012.07 222.15 965.7 239.38 932.62 258.41 928.51 277.88 955.37 298.31 1003.6 319.33Q1003.6 319.33 1003.6 319.33" opacity="0.98"></path><path d="M974.62 365.31C1022.97 385.33 1053.8 407.79 1056.12 432.62 1029.97 457.59 983.79 485.13 933.36 515.13 894.71 545.16 878.64 577.24 887.57 610.5 917.31 642.22 954.92 673.01 986.93 700.81 1003.88 723.49 998.22 739.88 970.94 748.04 927.93 748.99 878.42 741.77 832.39 728.03 787.91 707.36 795.68 713.04 824.9 760.55 842.3 807.94 850.7 859.74 848.02 906.36 834.67 937.92 810.78 948.24 779.18 935.22 741.81 906.14 702.27 870.53 663.31 843.02 625.37 837.92 591.11 859.94 561 906.08 534.29 962.74 511.43 1011.57 491.52 1034.89 474.12 1025.33 458.17 987.12 442.65 937.47 428.21 901.28 413.08 895.31 396.63 925.09 380.43 979.04 362.42 1032.62 342.4 1060.1 322.38 1048.34 300.82 1002.74 278.03 945.56 255.48 903.02 232.19 892.86 208.87 916.89 186.63 963.37 165.49 1008.61 146.57 1031.94 130.16 1023.59 117.46 984.72 109.48 929.52 112.69 862.37 128.41 939.22 110.15 920.08 84.19 881.33 48.3 831.9 4.66 781.47 -41.42 737.22 -85.14 705.74 -119.87 688.58 -115.61 706.51 -44.94 727.65 -81.89 706.44 -128.58 684.49 -179.23 658.25 -220.26 629.78 -240.49 598.98 -233.98 568.31 -203.06 538.92 -160.36 509.11 -120.07 481.41 -97.88 456.19 -104.16 430.98 -137.02 408.28 -185.37 388.26 -231.68 368.24 -257.25 351.37 -253.12 337.58 -221.6 323.81 -173.07 313.08 -123.98 305.13 -84.83 293.56 -146.44 272.31 -194.64 254.92 -206.62 236.67 -195.33 212.37 -163.34 180.9 -117.58 143.64 -67.95 100.97 -24.24 55.62 4.07 -32.04 -53.42 -2.36 -49.64 24.97 -32.35 21.52 -5.02 -2.86 29.16 -46.61 68.24 -100.52 108.44 -152.19 147.12 -187.36 183.99 -196.61 216.63 -178.01 244.84 -139.32 269.36 -98.79 290.1 -72.95 308.13 -75.88 323.65 -110.51 338.07 -165.29 352.4 -219.51 365.73 -251.28 380.07 -247.02 396.02 -208.45 411.75 -155.23 429.53 -111.65 449.55 -99.87 469.57 -127.34 491.36 -178.89 514.62 -228.88 537.67 -254.72 561.75 -242.87 586.18 -198.96 609.6 -141.59 632.28 -93.81 653.08 -72.94 671.37 -84.95 686.19 -120.74 696.36 -162.73 702.84 -194.2 704.04 -199.91 700.05 -176.97 694.23 -131.6 685.95 -76.6 677.72 -26.66 674.39 7.2 676.86 19.17 688.21 11.26 710.46 -11.7 743.2 -38.51 784.92 -59.67 830.81 -70.14 876.2 -64.25 914.4 -42.74 939.43 -8.27 947.57 34.34 937.64 79.45 914.78 124.05 884.54 163.18 856.64 195.11 842.5 219.83 847.54 237.27 874.19 249.29 918.11 256.19 969.04 260.96 1013.52 265.57 1039.31 268.63 1038.85 273.64 1012.44 281.36 949.76 294.56 914.51 336.74 974.62 365.31Q974.62 365.31 974.62 365.31" opacity="0.35"></path><path d="M945.62 445.28C991.8 464.3 1022.77 485.37 1028.54 508.19 1008.11 530.77 967.28 554.59 918.81 578.89 876.77 602.03 852.17 624.33 849.9 644.49 869.29 661.7 901.57 674.87 935.67 682.71 967.43 685.24 913.16 662.65 845.92 649.25 801.66 648.26 766.7 655.9 744.65 675.09 736.95 706.25 741.39 747.76 753.84 795.59 791.66 883.24 755.07 824.86 710.6 803.92 676.21 820.18 641.17 858.88 607.08 911.4 573.35 962.67 542.08 997.4 513.53 1004 486.38 981.99 461.71 939.57 439.05 894.2 417.34 866.9 396.88 869.37 377.2 903.1 357.8 955.84 338.66 1005.79 319.64 1031.1 300.62 1020.85 282.17 979.24 264.53 924.78 247.16 880.18 231.12 862.52 216.96 876.6 184.63 911 183.41 808.56 172.7 845.45 156.05 877.16 131.49 899.2 98.79 904.59 60.08 891.6 17.35 861.08 -25.37 818.97 -62.76 771.14 -90.93 725.39 -105.69 687.07 -106.1 658.82 -92.32 642.18 -67.86 635.52 -29.64 641.27 -26.27 664.01 -79.72 666.94 -127.75 664.04 -172.42 655.83 -202.54 643.16 -211.01 627.58 -195.49 609.07 -160.79 588.87 -119.66 567.34 -84.43 545.48 -67.76 524.14 -77.29 502.49 -110.19 481.97 -156.37 462.95 -200.7 443.94 -226.85 426.86 -226.51 411.46 -200.64 395.76 -156.81 381.11 -108.63 366.78 -69.99 351.11 -50.76 334.39 -54.16 315.46 -78.01 293.63 -112.27 268.07 -145.49 238 -168.9 204.7 -173.79 167.4 -158.46 127.35 -125.87 88.22 -82.04 51.03 -35.39 19.39 38.74 -1.03 9.65 60.31 -7.83 54.25 -10.39 26.4 -3.3 -16.8 12.65 -68.31 36.14 -116.77 65.56 -151.68 98.43 -163.98 134.01 -152.19 169.52 -120.44 203.49 -80.48 236.61 -49.67 266.94 -39.9 294.4 -58.45 320.23 -101.92 343.64 -156.5 365.2 -202.98 385.76 -224.41 405.32 -212.36 424.37 -171.53 443.15 -120.84 461.96 -81.14 480.98 -70.87 500 -96.17 518.78 -144.18 537.04 -193.17 555.03 -223.15 571.98 -220.04 587.29 -185.41 619.19 -81.21 629.74 -154.15 623.7 -165.05 622.07 -139.94 622.96 -95.95 628.79 -44.37 642.14 3.85 663.35 38.61 693.13 55.42 729.89 53.57 771.89 38.11 815.44 16.38 871.02 -14.21 905.87 -7.51 878.39 33.11 851.54 70.69 826.15 111.25 810.52 151.3 812.16 190.09 832.54 224.42 869.89 253.76 917.05 278.89 963.69 299.5 998.28 316.8 1012.41 331.15 1002.27 344.07 970.96 356.81 911.01 374.72 887.25 418.01 945.62 445.28Q945.62 445.28 945.62 445.28" opacity="0.73"></path><path d="M916.62 480.86C976.03 507.68 967.76 557.64 904.95 578.59 882.37 601.96 914.25 596.79 862.19 611.26 818.35 632.3 775.87 662.35 740.1 700.71 714.38 743.54 700.35 787.67 696.99 827.56 738.29 814.02 696.79 841.71 658.02 916.12 629.03 956.02 599.65 974.44 570.93 965.79 541.82 934.87 514.25 891.83 488.57 852.91 463.08 834.87 439.5 844.95 417.85 881.62 396.3 932.61 376.5 978.89 358.48 1002.1 340.46 993.27 324.65 955.58 311.1 904.26 279.56 868.56 255.2 968.21 251.65 935.94 247.09 889.53 240.85 838.83 231.38 796.37 216.89 770.97 197.13 766.25 171.28 779.39 140.03 805.41 103.79 833.79 64.29 855.87 25.19 866.89 -11.26 861.83 -41.22 841.41 -61.48 808.33 -69.94 767.31 -65.49 723.95 -51 681.75 -28.58 645.52 -3.5 617.17 21.06 591.11 -18.45 579.97 -80.97 583.17 -154.47 582.68 -64.63 548 -38.34 526.25 -50.7 510.8 -83.4 493.95 -127.37 475.94 -169.68 457.92 -196.16 439.15 -199.22 419.51 -178.85 399.56 -140.24 378.18 -94.32 354.94 -53.1 330.76 -26.37 304.07 -19.22 274.62 -32.32 244.18 -59.42 211.32 -91.7 176.81 -121.48 143.41 -139.09 110.91 -139.99 81.55 -123.89 57.89 -92.64 41.18 -51.94 33.45 -7.7 34.03 33.29 43.44 66.12 59.86 92.87 85.57 81.45 91.28 60.88 50.28 47.82 6.94 40.03 -41.5 38.84 -86.28 43.56 -118.19 55.4 -130.94 73.17 -121.62 95.82 -95.23 122.1 -59.22 150.32 -26.01 180.51 -9.45 210.61 -16.15 239.68 -47.39 268.88 -95.56 296.31 -146.5 321.74 -183.69 346.85 -195.07 370.06 -176.39 391.44 -134.36 412.67 -86.6 432.3 -50.72 450.32 -41.87 468.34 -65.07 484.32 -109.51 498.18 -156.95 511.9 -190.07 523.27 -194.86 532.14 -169.88 540.69 -124.01 546.64 -72.36 550.14 -31.26 553.76 -12.44 555.65 -19.12 556.69 -45.8 561.78 -99.67 591.06 -118.92 622.55 -66.15 651.51 -17.63 686.12 28.97 724.96 65.85 764.57 88.44 802.79 95.37 835.7 89.35 857.82 42.92 784.91 55.2 777.99 96.7 794.97 130.69 827.26 166.02 870.24 200.65 915.74 235.06 954.57 266.74 977.83 295.34 980.85 322.28 962.73 346.38 928.46 368.18 889.49 388.85 856.19 408.15 839.38 426.66 846.01 444.84 874.31 462.84 916.62 480.86Q916.62 480.86 916.62 480.86" opacity="0.89"></path><path d="M887.62 437.18C961.03 471.21 961.95 495.32 891.32 508.98 812.97 522.12 789.26 526.35 826.26 528.1 885.4 542.31 906.87 572.69 871.09 629.14 795.76 703.59 718.37 781.03 668.74 829.55 662.91 807.55 698.7 788.28 672.89 915.21 637.57 943.24 594.2 886.97 550.35 814.15 504.36 822.28 463.17 909.62 429.14 973.1 395.11 932.1 369.84 838.43 351.64 804.67 331.3 863 312.76 932.11 289.09 928.15 253.28 849.53 202.52 762.81 135.84 730.75 65.74 762.3 3.76 810.4 -28.45 826.77 -23.43 796.11 13.6 727.23 53.5 650.6 53.83 583.66 1.84 540.63 -82.23 516.28 -144.19 506.68 -139.84 498.95 -74.63 484.99 -17.13 471.82 -24.95 448.49 -98.36 414.45 -166.24 380.42 -156.5 337.29 -80.56 286.28 -6.85 236.05 6.93 181.86 -36.57 132.48 -94.05 97.86 -107.51 84.84 -63.69 99.32 14.98 123.5 89.32 143.52 132.34 129.57 137.61 68.59 120.42 -19.85 102.37 -86.84 90.89 -90.21 100.44 -34.02 127.72 19.65 167.07 -1.34 213.1 -89.81 258.39 -161.28 305.46 -140.65 347.05 -53.88 381.08 -12.88 415.12 -76.36 439.98 -156.81 457.11 -151.8 476 -65.85 491.88 9.78 511.52 6.71 543.21 -57.96 589.71 -102.07 653.64 -77.07 724.15 3.57 790.21 87.56 829.55 132.35 814.13 114.15 767.51 86.7 871.93 144.31 940.38 201.54 945.96 259.22 885.38 310.27 822.58 360.79 819.74 403.14 887.62 437.18Q887.62 437.18 887.62 437.18" opacity="0.72"></path><path d="M858.6 357.04C929.14 389.08 937.09 412.7 877.41 430.28 798.85 450.93 758.27 472.52 775 502.99 828.83 546.9 868.97 607.09 864.35 679.25 814.66 744.58 740.54 787.99 672.19 790.04 627.05 758.86 610.83 715.87 613.06 703.75 632.27 793.75 614.03 869.56 574.51 778.38 542.77 800.49 509.5 886.23 477.47 944.09 445.44 908.05 416.16 818.98 387.48 773.66 355.79 813.7 319.12 884.88 273.25 908.51 220.21 858.86 158.12 771.29 94.21 707.56 27.72 717.46 60.44 771.67 94.84 701.38 66.1 630.6 -2.74 565.06 -80.06 513.18 -120.26 472.99 -97.91 443.7 -31.71 418.22 15.59 396.38 1.15 370.83 -69.38 338.8 -134.95 306.77 -132.8 269.76 -66.88 231.19 25.13 181.77 -56.81 154.72 -61.64 182.52 -5.46 189.48 70.07 171.42 135.09 115.85 178.9 0.29 157.43 -2.14 157.97 53.44 170.87 6.33 195.41 -83.06 226.21 -135.47 260 -102.51 294.31 -19.93 326.34 16.1 358.37 -41.75 386.61 -121 413.24 -130.75 442.85 -60.12 476.58 23.93 519.19 49.45 569.98 5.32 631.1 -52.25 696.56 -65.75 752.15 -20.27 788.08 60.68 791.28 133.84 749.47 175.07 760.4 133.89 871.41 141.76 919.58 166.81 906 203.49 842.25 243.25 788.69 286.08 793.03 325.01 858.6 357.04Q858.6 357.04 858.6 357.04" opacity="0.74"></path><path d="M829.62 319.02C897.01 349.05 911.04 379.05 862.72 411.28 787.59 446.77 734.45 489.93 730.22 543.36 770.15 600.75 817.12 662.25 837.59 715.62 819.57 746.99 765.67 748.29 697.8 718.75 633.53 683.93 588.47 666.32 563.99 693.4 559.03 803.83 558.68 820.82 538.9 745.93 521.04 779.93 496.43 862.75 466.4 915.1 436.37 883.81 402.34 800.38 363.56 746.18 323.11 767.04 275.69 832.4 222 875.9 169.33 859.08 117.91 787.87 77.56 709.54 56.73 665.01 120.28 735.53 116.18 723.07 64.43 680.65 -9.46 624.18 -71.4 566.97 -89.18 510.11 -53.13 462.13 10.4 422.52 47.13 385.7 27.01 353.16 -40.37 323.13 -103.37 293.1 -108.03 267 -52.83 247.18 44.98 226.82 -3.38 236.99 -40.29 236.65 -14.71 208.54 44.1 154.02 112.74 79.61 173.93 11.27 213.78 -25.92 233.06 -11.87 232.26 57.31 231.66 -32.44 253.23 -106.13 272.54 -63.54 298 13.79 328.03 45.11 358.06 -7.22 391.24 -83.95 428.57 -106.39 467.83 -53.52 514.04 30.77 567.24 79.87 620.69 64.15 674.63 11.23 719.48 -28 746.49 -23.82 749.75 29.37 727.93 103.55 698.65 172.45 675.43 214.28 681.11 229.2 726.63 222.12 798.86 210.07 865.51 204.72 891.68 203.33 862.67 214.8 799.5 235.94 755.88 260.35 766.61 288.98 829.6 319.01Q829.62 319.02 829.62 319.02" opacity="0.96"></path><path d="M800.62 360.36C864.63 388.38 883.8 423.1 846.83 464.39 778.25 506.33 717.48 554.66 694.12 605.62 735.75 668 789.77 685.84 727.31 641.74 664.32 628.58 604.64 647.39 557.57 705 514.9 809.83 482.7 770.88 465.48 716.95 452.63 760.4 432.46 839.12 404.43 886.1 376.4 859.3 341.85 782.41 301.84 722.17 262.3 724.41 219.1 777.54 176.44 831.23 140.47 844.56 113.89 801.35 103.58 728.21 117.17 642.16 162.25 663.41 118.2 689.39 54.33 685.22 -12.97 660.19 -54.06 622.73 -51.24 576.66 -6.43 530.13 51.33 488.32 77.48 446.27 52.63 410.8 -11.37 382.77 -71.52 354.74 -82.08 335.48 -37.87 324.67 60.08 311.39 54.44 284.99 1.07 235.4 -3.05 179.81 28.14 112.42 82.33 49.92 146.33 13.57 203.96 15.7 247.32 54.87 275.5 98.84 290.95 116.92 300.6 83.06 307.6 -25.71 346.74 11.68 384.89 74.11 412.92 27.14 447.39 -45.89 487.5 -78.54 527.44 -44.39 571.75 32.72 616.66 97.34 670.94 94.76 692.47 10.46 656.51 67.56 639.05 136.28 641.08 200.76 674.38 247.78 769.5 280.28 836.8 288.49 757.64 300.74 724.23 312.31 740.46 332.32 800.6 360.35Q800.62 360.36 800.62 360.36" opacity="0.75"></path><path d="M771.62 440.55C832.03 466.57 855.32 498.4 829.31 533.96 769.71 567.66 706.41 600.84 667.87 627.73 681.31 647.12 762.34 606.86 740.85 587.98 697.08 607.96 642.57 657.49 588.55 726.91 538.45 789.29 498.39 818.51 467.46 798.11 443.53 746.54 423.7 697.32 404.12 691.48 386.31 741.72 365.09 815.31 339.06 857.1 313.03 834.52 283.44 764.84 252.17 701.43 208.9 705.21 158.39 807.13 166.97 749.61 180.89 679.65 198.03 619.72 207.69 585.69 196.75 580.74 162.53 594.65 106.43 612.46 17.31 631.85 16.83 591.56 90.63 547.98 106.6 515.66 78.03 485.32 17.62 459.3 -39.41 433.27 -54.93 412.78 -21.57 396.01 41.03 376.93 101.52 356.76 133.47 330.42 126.9 295.22 94.37 248.44 58.06 190.9 32.89 132.97 35.36 81.7 64.06 52.52 112.01 52.44 168.13 81.51 221.55 124.37 269.26 149.04 306.15 137.23 334.02 82.69 354.76 9.68 372.2 -41.69 390.27 -37.25 406.72 16.09 427.29 80.5 453.32 103.11 479.34 61.33 509.59 -6.98 542.23 -47.19 573.24 -31.32 603.15 32.69 627.52 103.35 647.75 139.9 620.45 50.02 597.23 54.81 602.63 97.22 631.02 155.75 683.28 214.51 746.69 267.46 802.57 306.71 828.22 334.23 815.36 352.45 769.68 366.61 717.12 381.99 693.79 395.51 714.56 414.51 771.6 440.54Q771.62 440.55 771.62 440.55" opacity="0.31"></path><path d="M742.62 480.99C799.2 505.01 825.61 528.24 809.79 548.77 760.87 567.15 699.82 579.04 651.41 581.51 635.81 573.94 711.64 547.5 724.92 574.52 708.57 621.53 674.69 683.77 631.5 744.16 582.73 781.12 535.91 780.75 494.56 742.55 456.28 692.8 423.84 659.42 395.77 669.39 369.26 723.69 344.43 791.31 320.41 828.1 296.38 809.45 274.3 747.47 255.5 683.64 229.81 718.77 248.22 675.44 232.78 588.76 198.93 551.32 148.59 535.37 89.88 534.35 43.74 554.31 118.84 512.31 46.62 477.7 -7.06 453.67 -26.55 427.94 -3.54 399.39 49.55 368.93 109.89 332.57 153.53 289.09 166.87 243.19 152.02 193.05 122.44 145.22 80.06 99.93 113.83 137.55 178.36 181.82 228 179.08 274.27 141.59 314.32 77.49 350.62 14.36 381.16 -17.27 407.81 1.77 432.82 56.32 456.84 113.43 480.87 132.11 504.89 95.33 527.78 32.58 548.08 -12.45 566.74 -13.17 579.91 33.86 585.25 101.23 583.48 168.01 557.26 114.77 565.45 82.37 594.49 88.88 641.38 119.28 699.56 163.69 754.16 216.3 790.56 266.9 794.84 310.59 768.82 349.76 722.16 381.57 678.33 408.5 664.58 433.27 688.91 456.96 742.6 480.98Q742.62 480.99 742.62 480.99" opacity="0.46"></path><path d="M713.32 441.92C780.26 471.87 723.5 499.02 643.71 496.31 608.61 494.9 597.72 493.52 607.57 498.41 633.06 516.5 659.61 549.32 677.47 597.64 684.95 653.18 676.31 706.92 654.65 743.17 623.31 751.35 586.39 728.22 548.83 683.36 509.72 643.16 473.86 627.23 442.57 650.29 411.67 705.98 385.05 766.97 363.03 798.98 341.01 783.94 324.62 729.94 314 668.23 300.93 676.19 274.17 699.1 226.34 621.11 179.62 567.38 126.95 525.55 78.53 497.88 77.28 478.02 144.49 449.43 75.32 419.82 25.29 397.8 3.02 369.99 16.71 337 59.17 303.97 115.06 266.4 164.65 226.92 169.49 158.05 117.69 206.04 149.87 216.2 184.58 187.49 223.59 134.48 262.17 72.47 301.61 25.41 337.22 13.17 368.1 43.17 398.41 96.38 424.64 145.93 446.66 160.99 493.31 62.82 508.72 177.94 506.58 214.13 514.94 200.82 533.37 173.19 565.47 146.51 609.58 127.05 661.88 125.85 712.86 141.7 750.56 170.75 765.74 208.4 752.52 247.97 719.07 289.83 675.71 327.93 641.75 360.63 636.56 392.76 663.29 419.9 713.32 441.92Q713.32 441.92 713.32 441.92" opacity="0.23"></path><path d="M684.62 361.88C747.76 389.14 715.15 421.35 641.76 434.74 598.4 449.22 571.41 469.71 562.81 499.56 571.91 537.98 590.29 584.92 609.8 635.24 633.18 694.18 618.52 684.24 586.5 626.09 559.55 600.54 531.54 601.4 505.03 634.12 477.83 688.71 453.68 742.62 433.66 770.1 413.64 758.34 398.69 712.38 388.13 654.96 372.69 602.22 341.58 661.93 312.28 705.4 282.71 710.72 244.63 692.02 199.67 655.91 153.93 608.84 111.81 560.39 81.86 517.35 69.62 480.44 78.65 452.65 107.34 431.91 160.35 410.29 169.79 370.43 104.62 342.63 58.31 322.61 33.91 299.08 39.05 273.51 70.16 249.23 118.19 225.63 168.19 206.15 214.36 202.34 158.86 253.14 159.84 224.46 172.39 179.08 193.22 123.27 218.6 73.06 247.56 45.05 276.88 49.79 304.14 86.72 331.94 136.42 356.34 178.33 376.36 190.11 396.39 162.64 411.07 112.79 421.03 65.92 431.53 40.91 438.63 51.44 444.36 91.66 453.68 147.16 465.82 199.76 484.13 235.78 510.64 249.21 546.1 242.69 589.64 225.12 635.74 201.04 680.19 182.84 714.39 175.27 731.74 176.28 727.79 188.76 702.61 208.98 667.29 234.53 630.66 262.45 607.27 289.35 609.86 317.24 638.31 341.86 684.62 361.88Q684.62 361.88 684.62 361.88" opacity="0.74"></path><path d="M655.6 319.07C699.57 337.09 729.28 354.61 736.69 372.43 721.8 391.48 687.43 413.08 643.19 438.97 598.32 468.33 561.45 503.57 537.35 543.97 527.9 584.59 530.4 624.45 539.99 657.25 573.31 650.02 557.95 573.87 533.4 619.99 515.32 671.3 496.78 717.88 478.76 741.09 460.74 732.26 444.1 694.21 428.2 642.83 411.34 596.05 393.41 568.02 372.84 564.06 349.1 583.26 320.54 614.08 286.61 644.25 249.9 667.71 210.08 674.58 170.88 664.51 137.67 640.43 113.82 606.07 104.5 567.76 109.84 527.01 130.55 489.38 162.21 456.76 193.24 426.62 217.36 401.18 225.3 379.35 210.93 358.63 177.57 339.56 133.6 321.54 78.62 295.47 103.28 258.33 167.57 253.56 246.84 274.81 226.79 267.75 211.95 211.41 209.26 138.99 241.47 82.71 268.05 131.42 287.28 175.84 306.42 210.25 324.44 219.1 342.45 195.9 358.5 152.98 373.25 108.62 388.94 76.99 405.14 72.14 423.56 94.29 445.29 136.2 471.72 186.42 503.81 232.43 539.48 266.66 579.23 284.58 619.72 288.14 640.49 250.52 598.79 292.22 655.6 319.07Q655.6 319.07 655.6 319.07" opacity="0.42"></path><path d="M626.6 355.58C697.14 387.61 702.46 434.88 644.27 496.03 564.53 556.18 507.86 615.12 487.89 641.98 507.32 600.74 505.02 610.48 463.45 712.09 431.42 676.05 389.46 585.62 335.97 532.92 278.98 553.36 213.41 604.94 159.79 632.11 137.77 622.78 160.47 575.43 216.73 519.43 251.44 458.38 233.14 409.39 162.6 377.35 97.03 345.32 101.57 333.28 165.96 338.81 244.66 339.3 294.71 336.66 307.76 304.01 282.54 192.08 288 173.33 330.41 248.09 362.44 190.23 402.74 115.72 454.07 107.39 510.22 170.38 577.11 256.96 635.86 313.88 656.76 324.53 556.81 316.66 626.6 355.58Q626.6 355.58 626.6 355.58" opacity="0.18"></path><path d="M597.37 435.52C661.46 463.55 678.12 504.18 641.77 548.15 575.39 582.91 509.69 601.1 466.06 586.64 447.27 554.25 443.61 514.52 439.65 507.12 439.71 556.1 427.3 636.02 399.27 683 371.24 656.2 330.25 578.32 281.61 514.65 216.96 516.51 203.85 586.61 267.68 557.42 283.48 520.76 255.46 483.28 191.37 455.26 131.32 427.23 123.44 411.3 167.03 399.39 235.82 377.02 298.38 339.24 336.45 277.62 348.55 177.83 355.28 216.94 389.49 277 417.52 230.02 458.56 161.46 508.18 133.03 554.82 160.97 599.23 230.43 623.54 299.56 622.2 350.75 589.37 376.3 541.12 390.12 518.08 394.72 537.32 407.49 597.37 435.52Q597.37 435.52 597.37 435.52" opacity="0.74"></path><path d="M568.62 480.74C637.07 516.15 556.59 543.76 474.86 509.34 434.07 484.63 407.61 471.67 388.88 492.31 376.08 548.85 359.97 617.32 335.94 654.1 311.92 635.45 282.26 572.68 253.42 508.16 245.65 496.62 293.94 512.45 220.62 479.09 166.93 455.06 149.92 427.96 173.38 393.91 223.91 353.83 283.42 300.43 333.33 240.51 369.86 191.82 392.12 168.13 407.95 187.5 418.08 234.4 432.89 287.44 456.91 306.11 480.93 269.33 511.89 210.6 543.4 171.66 569.21 168.62 584.45 207.06 579.41 263.26 560.99 323.68 526.96 372.17 494.04 406.59 488.18 433.72 514.92 456.71 568.6 480.73Q568.62 480.74 568.62 480.74" opacity="0.62"></path><path d="M539.62 446.71C601.51 471.24 569.02 462.38 502.84 438.97 457.41 436.26 419.29 450.39 389.75 488.3 363.7 543.05 341.48 597.62 321.46 625.1 301.44 613.34 285.51 566.65 276.86 509.93 301.12 444.58 315.56 449.16 249.62 425.29 203.31 405.27 181.27 374.82 188.1 336.33 217.38 298.33 261.88 256.54 307.88 221.99 352.15 203.72 388.15 209.47 415.74 242.72 439.55 284.77 460.44 323.34 480.46 335.1 500.48 307.62 517.74 261.16 528.62 221.09 535.73 197.85 530.98 204.96 512.94 233.91 493.18 276.56 469.92 321.81 455.31 360.26 463.15 397.57 493.31 426.69 539.62 446.71Q539.62 446.71 539.62 446.71" opacity="0.43"></path><path d="M510.6 366.88C581.14 398.92 581.08 398.35 530.71 401.18 460.13 447.35 399.24 538.24 367.21 596.09 335.17 560.05 338.07 467.01 366.66 406.22 375.05 386.07 349.14 378.73 278.6 346.69 213.03 314.66 222.47 264.01 278.31 242.17 350.61 260.98 410.3 328.05 442.34 364.09 473.52 273.78 436.77 305.57 510.6 366.88Q510.6 366.88 510.6 366.88" opacity="0.38"></path><path d="M481.62 319.52C538.19 343.54 556.53 366.97 539.24 404.85 503.51 460.18 462.08 530.32 438.06 567.1 414.03 548.45 411.96 484.09 416.2 424.27 402.01 375.91 364.19 344.37 307.62 320.35 287.02 321.18 395.9 330.99 387.49 281.82 396.48 275.42 427.93 295.5 481.62 319.52Q481.62 319.52 481.62 319.52" opacity="0.80"></path><path d="M452.6 351.02C523.15 383.06 511.79 480.24 479.76 538.09 447.72 502.04 407.15 404.09 336.6 372.05 271.03 340.02 290.78 386.04 322.82 422.09 354.85 364.24 387.03 318.99 452.6 351.02Q452.6 351.02 452.6 351.02" opacity="0.62"></path></g></svg>